<svg width="40" height="40" viewBox="0 0 40 40" fill="none" xmlns="http://www.w3.org/2000/svg">
<path d="M30.8464 22.2552L27.246 19.708C26.6987 19.3198 26.0297 19.1668 25.3607 19.2668C24.6917 19.3668 24.1078 19.7139 23.7064 20.2434L22.5934 21.7199C22.5813 21.7376 22.5691 21.7552 22.5569 21.7729C22.3867 21.7964 21.4866 21.814 19.3336 20.1551L19.1025 19.9963C16.8522 18.5491 16.5968 17.7197 16.5664 17.5491C16.5785 17.5314 16.5968 17.5138 16.6089 17.4961L17.7219 16.0196C18.543 14.9313 18.2997 13.3959 17.1685 12.5959L13.5011 10.0075C12.376 9.20743 10.7887 9.44862 9.96154 10.5428L8.83641 12.037C7.74777 13.4841 7.46192 15.3843 8.07618 17.1196C8.97021 19.6316 11.2144 22.2847 14.7662 25.0142C14.827 25.0848 14.9 25.1436 14.979 25.2025C15.0642 25.2613 15.1554 25.3201 15.2405 25.379C15.3257 25.4437 15.4108 25.5025 15.496 25.5672C15.575 25.626 15.6602 25.6731 15.7453 25.7084C19.5161 28.1438 22.8124 29.4086 25.5614 29.4615C25.5979 29.4615 25.6404 29.4615 25.6769 29.4615C27.471 29.4615 29.1861 28.6086 30.2687 27.1673L31.3938 25.6731C31.7952 25.1436 31.9533 24.4965 31.8499 23.8494C31.7526 23.2082 31.3938 22.6376 30.8464 22.2552ZM29.4355 24.2907L28.3103 25.7849C27.6657 26.6378 26.6318 27.1261 25.6161 27.1085C23.974 27.0732 21.1034 26.4143 16.688 23.4788C12.449 20.3022 10.9225 17.8609 10.3873 16.3608C10.0345 15.3666 10.1926 14.243 10.8069 13.4312L11.932 11.937C11.9625 11.8958 12.0233 11.8841 12.0719 11.9135L15.7393 14.5018C15.7818 14.5313 15.794 14.596 15.7636 14.6372L14.6993 16.0431C14.3769 16.3843 14.0911 16.9608 14.1397 17.6962C14.237 19.0551 15.4169 20.4493 17.7158 21.9258L17.8557 22.0258C20.0512 23.72 21.7846 24.3848 23.153 24.0612C23.8889 23.8847 24.3693 23.4435 24.6065 23.0435L25.6708 21.6376C25.7012 21.6023 25.7742 21.5905 25.8107 21.614L29.4172 24.1612C29.4537 24.1789 29.4598 24.2495 29.4355 24.2907Z" fill="white"/>
<path d="M20.003 0C8.97674 0 0 8.67697 0 19.3482C0 23.8426 1.61168 28.1722 4.54919 31.6312L1.17379 37.9904C0.948761 38.4081 1.00958 38.914 1.31975 39.2787C1.55694 39.5494 1.89752 39.7023 2.25635 39.7023C2.3719 39.7023 2.48746 39.6847 2.60301 39.6552L11.8169 37.008C14.3956 38.1316 17.1446 38.6964 19.997 38.6964C31.0233 38.6964 40 30.0194 40 19.3482C40 8.67697 31.0293 0 20.003 0ZM20.003 36.3374C17.3575 36.3374 14.8092 35.7844 12.4434 34.6844C12.1697 34.5608 11.8595 34.5373 11.5737 34.6197L4.6465 36.6139L7.09138 32.0019C7.32249 31.5665 7.24951 31.043 6.91501 30.6783C4.02615 27.5604 2.43272 23.5308 2.43272 19.3482C2.43272 9.97705 10.3147 2.35308 20.003 2.35308C29.6913 2.35308 37.5673 9.97705 37.5673 19.3482C37.5673 28.7193 29.6913 36.3374 20.003 36.3374Z" fill="white"/>
</svg>
