<svg width="66" height="90" viewBox="0 0 66 90" fill="none" xmlns="http://www.w3.org/2000/svg">
<path d="M33.0004 90L34.0006 88.8254C35.288 87.3175 65.4981 51.645 65.4981 34.1394C65.4981 15.6332 50.6133 0 33 0C15.3867 0 0.501953 15.6332 0.501953 34.1394C0.501953 51.645 30.7127 87.3181 31.9995 88.8254L33.0004 90ZM33.0004 2.62549C49.193 2.62549 62.8724 17.0586 62.8724 34.1388C62.8724 48.9723 38.3038 79.5061 33.0004 85.923C27.6968 79.5065 3.12843 48.9723 3.12843 34.1388C3.12843 17.0586 16.8078 2.62549 33.0004 2.62549Z" fill="white"/>
<path d="M51.3827 31.8408C51.3827 21.7056 43.1351 13.458 32.9999 13.458C22.8647 13.458 14.6172 21.7056 14.6172 31.8408C14.6172 41.976 22.8647 50.2235 32.9999 50.2235C43.1351 50.2235 51.3827 41.976 51.3827 31.8408Z" fill="white"/>
</svg>
