<svg width="125" height="119" viewBox="0 0 125 119" fill="none" xmlns="http://www.w3.org/2000/svg">
<path d="M8.10009 57.5444C6.42265 57.5444 5.06236 58.9018 5.06236 60.5833C5.06236 62.2647 6.40435 63.6343 8.07573 63.6343L29.7301 63.6282C31.4075 63.6282 32.7678 62.2647 32.7678 60.5832C32.7678 58.9018 31.4075 57.5383 29.7301 57.5383L8.10009 57.5444ZM71.8202 27.9509C70.1427 27.9509 68.7885 29.3144 68.7885 30.9958V65.6954C68.7885 66.6125 69.1911 67.438 69.8316 67.9945L86.7216 84.7478C87.3133 85.3348 88.0819 85.6222 88.8566 85.6222C89.6374 85.6222 90.4182 85.3226 91.0159 84.7234C92.1932 83.5249 92.181 81.5989 90.9915 80.4188L74.8573 64.4293V30.9961C74.8573 29.3147 73.4976 27.9509 71.8202 27.9509ZM57.644 0.00249444H57.6257C55.9483 0.00249444 54.5941 1.35991 54.588 3.04136C54.588 4.72281 55.9483 6.08634 57.6257 6.08634L68.7885 6.09245L68.7763 12.482C52.4828 13.4053 38.1491 21.6781 29.0295 34.0534H17.2812C15.6037 34.0534 14.2495 35.4169 14.2495 37.0922C14.2495 38.7737 15.6037 40.1372 17.2812 40.1372H45.7128C47.3902 40.1372 48.7505 38.7737 48.7505 37.0922C48.7505 35.4108 47.3902 34.0472 45.7128 34.0472L36.8678 34.0534C45.487 24.4903 57.9553 18.486 71.8268 18.486C97.8364 18.486 118.924 39.6238 118.924 65.6954C118.924 91.7732 97.8364 112.911 71.8206 112.911C53.5033 112.911 37.6252 102.425 29.8345 87.1196H37.3191C38.9966 87.1196 40.3569 85.7561 40.3569 84.0746C40.3569 82.3932 38.9966 81.0297 37.3191 81.0297H3.03164C1.3542 81.0297 0 82.3932 0 84.0746C0 85.7561 1.35418 87.1196 3.03164 87.1196H23.1182C31.3408 105.884 50.0553 119 71.8206 119C101.192 119 125 95.1355 125 65.6938C125 48.3159 116.698 32.8774 103.858 23.149L107.323 17.114L111.641 19.6088C112.117 19.8839 112.642 20.0185 113.154 20.0185C114.203 20.0185 115.222 19.4682 115.789 18.496C116.625 17.0407 116.125 15.1758 114.673 14.3382L100.784 6.29776C100.308 6.01649 99.7832 5.88809 99.2708 5.88809C98.2216 5.88809 97.203 6.43229 96.6356 7.4106C95.8 8.86584 96.294 10.7246 97.7458 11.5683L102.065 14.0692L98.7888 19.7495C91.7068 15.5611 83.5695 12.9748 74.8717 12.4795L74.8595 6.08995L86.0162 6.08384C87.6936 6.08384 89.0539 4.72033 89.0539 3.04497C89.0539 1.36353 87.6937 0 86.0162 0L57.644 0.00249444Z" fill="#AD5D3D"/>
</svg>
