<svg width="120" height="120" viewBox="0 0 120 120" fill="none" xmlns="http://www.w3.org/2000/svg">
<path d="M83.4404 0.00312492C84.3779 0.00312492 85.3154 0.00312492 86.2528 0.00312492C86.3935 0.0656233 86.531 0.153121 86.6778 0.187495C90.7746 1.18747 93.2089 3.68428 93.5464 7.86542C93.8339 11.4341 93.6526 15.0402 93.7276 18.6276C93.7433 19.3464 93.8808 20.1026 94.1464 20.7682C96.2807 26.0837 98.4494 31.3836 100.627 36.6834C101.359 38.4584 101.646 40.2583 101.265 42.1708C100.849 44.252 99.6181 45.8394 98.2838 47.3863C97.9619 47.7581 97.5244 48.205 97.5057 48.6331C97.4213 50.5268 97.4682 52.4268 97.4682 54.2798C97.6869 54.3486 97.7588 54.3892 97.8307 54.3892C107.259 54.3611 113.79 62.6109 113.074 70.4325C113.052 70.6763 113.324 71.1325 113.533 71.1856C116.015 71.8044 118.036 73.2293 119.999 74.7699V75.0043C119.149 75.7668 118.296 76.5261 117.408 77.323C115.046 74.9543 112.062 74.3074 108.812 74.0137C110.055 70.0451 109.905 66.292 107.452 62.8921C105.034 59.5391 101.759 57.8516 97.54 57.936C97.5025 58.2485 97.4619 58.436 97.4619 58.6235C97.4525 66.117 97.4369 73.6106 97.4744 81.1041C97.4744 81.5635 97.8119 82.126 98.1619 82.4666C104.618 88.7039 111.099 94.9132 117.577 101.129C120.602 104.035 120.677 106.844 117.824 109.866C114.93 112.931 112.046 116.003 109.168 119.084C108.915 119.356 108.73 119.694 108.515 120H108.28C106.546 118.525 105.084 116.844 104.846 114.478C104.705 113.097 104.821 111.691 104.821 110.238H76.4031C76.4031 111.344 76.3406 112.394 76.4156 113.431C76.6468 116.691 75.325 118.919 72.1907 120H56.2536C55.9317 115.516 58.0348 112.481 61.9316 110.522C62.0128 110.482 62.0566 110.366 62.2222 110.15H31.6574V106.625H63.5128C63.5128 106.082 63.5128 105.66 63.5128 105.235C63.5128 99.2599 63.5034 93.2851 63.5347 87.3134C63.5378 86.6759 63.6815 85.9946 63.9315 85.4072C66.3315 79.776 68.6408 74.1043 71.2376 68.5638C72.8188 65.1889 73.7063 61.7921 73.3125 58.0829C73.3094 58.0454 73.3063 58.0047 73.3125 57.9672C73.4407 57.2048 73.0719 56.8829 72.3563 56.6673C67.9314 55.3236 62.9409 58.2954 62.066 62.8484C61.8972 63.7202 61.841 64.6108 61.7285 65.5452C54.938 64.6327 51.1381 67.5014 50.5756 74.4387C47.6195 73.7887 44.9352 74.0074 42.5633 75.8668C40.1853 77.7292 39.4072 80.3073 39.3634 83.3416C36.3948 82.7416 33.6917 83.1697 31.1855 84.8572C29.4012 80.5198 26.4044 78.1386 21.8264 78.8229C16.9296 79.5542 14.8922 82.9822 14.7047 87.7196C13.8235 87.6508 13.0891 87.579 12.3516 87.5415C8.02049 87.3102 4.62058 89.7258 3.79873 93.6007C2.58314 99.338 6.56428 105.435 12.3579 106.366C14.7641 106.753 17.2578 106.616 19.7108 106.65C22.4357 106.691 25.1607 106.66 27.9637 106.66V110.125C27.5794 110.144 27.2731 110.172 26.9638 110.172C22.8232 110.172 18.6858 110.194 14.5453 110.169C8.40173 110.128 3.27999 106.591 1.1238 100.832C0.611312 99.463 0.367569 97.9912 0.00195312 96.5662C0.00195312 95.8631 0.00195312 95.16 0.00195312 94.4569C0.083201 94.0851 0.11445 93.6882 0.258196 93.3413C0.961303 91.6726 1.46442 89.857 2.47064 88.3915C4.28934 85.7384 7.12677 84.6165 10.2298 84.0978C10.8892 83.9884 11.636 84.1384 11.9516 83.1166C12.9235 79.9729 15.0016 77.7198 17.964 76.323C18.5921 76.0261 18.8108 75.6887 18.8015 75.0074C18.764 72.3169 18.7858 69.6263 18.7858 66.9326C18.7858 65.967 18.7858 65.0014 18.7858 64.0358C18.2796 63.9452 17.8984 63.8765 17.514 63.814C8.87672 62.4015 3.35499 57.4423 0.842556 49.105C0.448817 47.7738 0.280071 46.3707 0.00507804 45.002C0.00507804 39.6896 0.00507804 34.3772 0.00507804 29.0649H3.55186C3.55186 33.7397 3.48624 38.2646 3.58311 42.7864C3.62373 44.6051 3.83935 46.4613 4.28309 48.2206C5.99867 54.9986 12.1641 60.1141 18.7077 60.3203C18.7327 60.1734 18.7796 60.0234 18.7796 59.8734C18.7858 54.9142 18.8015 49.9549 18.7577 44.9957C18.7546 44.5645 18.4452 44.0489 18.1234 43.7207C16.1359 41.6833 14.1047 39.6896 12.0454 37.6396C12.9235 36.7897 13.7266 36.0147 14.8109 34.9678C16.064 36.3491 17.3265 37.7365 18.6171 39.1584C19.1983 36.0678 18.9671 33.3866 16.1828 31.5273C15.6109 31.1429 15.1766 30.5492 14.6797 30.0523C13.111 28.4868 11.5423 26.9212 10.0392 25.4243C10.8923 24.5306 11.6548 23.7306 12.5141 22.8307C15.2109 25.54 17.8734 28.2118 20.7264 31.0804C22.1576 29.5242 23.5482 28.0118 24.8951 26.5462C25.8294 27.4399 26.6325 28.2055 27.5044 29.0367C25.9638 30.5648 24.4357 32.0179 23.0014 33.5554C22.6264 33.9585 22.342 34.6178 22.3326 35.1647C22.2764 38.874 22.3014 42.5833 22.3076 46.2925C22.3076 46.5769 22.3607 46.8613 22.4201 47.455C25.0482 44.8176 27.4825 42.3739 29.8324 40.0177C30.6574 40.8552 31.4386 41.6458 32.2605 42.4833C29.2231 45.5176 26.1263 48.6019 23.042 51.7018C22.7514 51.9924 22.3514 52.3705 22.342 52.7174C22.2826 55.2454 22.3107 57.7766 22.3107 60.3609C22.6107 60.3484 22.7982 60.3516 22.9826 60.3297C31.1949 59.2422 37.2635 52.7236 37.4635 44.3301C37.6572 36.1366 37.7166 27.9243 37.4416 19.7339C37.2135 12.9184 34.0073 7.60605 27.5012 5.00924C20.7639 2.32181 14.3578 3.28741 8.82672 8.14979C5.0112 11.5059 3.61748 15.9965 3.54561 20.9588C3.52374 22.465 3.54249 23.9713 3.54249 25.5462H0.00507804V18.9839C0.0738263 18.7245 0.176949 18.4683 0.208198 18.2058C1.17692 9.67475 6.63615 3.21242 14.9016 0.890602C16.2422 0.515612 17.6265 0.293742 18.989 0.00312492C20.2389 0.00312492 21.4889 0.00312492 22.7389 0.00312492C22.917 0.0687482 23.0889 0.168746 23.2732 0.193745C31.2293 1.27497 36.5947 5.66235 39.654 13.0028C39.7853 13.3184 39.9322 13.6246 40.0978 13.9934C40.2853 13.8528 40.4103 13.7715 40.5196 13.6715C45.5195 9.03101 51.26 8.09979 57.4192 10.7435C63.6159 13.4028 66.7596 18.312 66.8002 25.0993C66.8346 30.7242 66.8721 36.3491 66.7877 41.9708C66.7002 47.8769 64.0409 52.3986 58.9035 55.2923C57.1411 56.286 55.1005 56.7891 53.1162 57.5391V63.0921C54.6755 62.6796 56.1567 62.2015 57.6754 61.9203C58.3786 61.789 58.6942 61.6171 58.9504 60.8984C60.5973 56.2798 63.9378 53.6424 68.7564 52.9674C70.2189 52.7611 71.7345 52.9361 73.3125 52.9361C73.3125 52.6361 73.3125 52.2111 73.3125 51.783C73.3125 44.7145 73.3125 37.6459 73.3125 30.5773C73.3125 26.3056 75.1156 22.99 78.6249 20.5838C78.803 20.462 78.9655 20.3151 79.1968 20.1307C77.2937 18.4276 76.2468 16.3871 76.1718 13.9215C76.1156 12.0091 76.0843 10.0935 76.1781 8.18416C76.3718 4.23426 78.953 1.19684 82.7998 0.237494C83.0185 0.181245 83.2279 0.0812479 83.4404 0V0.00312492ZM53.0224 53.5924C58.7098 52.9861 63.0847 48.3019 63.2316 42.4364C63.3847 36.349 63.3722 30.2523 63.2316 24.1619C63.1128 19.0714 59.5566 14.7902 54.6255 13.3747C49.6413 11.9434 44.457 13.6996 41.5665 17.8527C41.2571 18.2964 41.0478 18.912 41.0478 19.4495C41.0259 27.4149 41.0478 35.3803 41.054 43.3489C41.054 44.0895 41.1196 44.8707 40.9165 45.5613C40.4509 47.1394 41.0009 48.3456 41.9821 49.5206C43.5571 51.408 45.4914 52.7174 47.8507 53.383C48.3538 53.5236 48.8788 53.5799 49.5007 53.6923C49.5007 49.8299 49.535 46.1269 49.4663 42.4239C49.4538 41.8083 49.1475 41.0646 48.7288 40.6146C47.2757 39.049 45.7101 37.5896 44.3664 36.2647C45.2008 35.2772 45.9258 34.4179 46.807 33.3741C48.3632 34.9897 49.8194 36.4991 51.4756 38.2209C52.9474 36.6272 54.3849 35.0678 55.6943 33.6522C56.6255 34.5585 57.4192 35.3335 58.2817 36.1709C56.7598 37.6709 55.188 39.1896 53.6599 40.7489C53.3599 41.0552 53.0506 41.5208 53.0443 41.9145C52.9974 45.7769 53.0162 49.6393 53.0162 53.5924H53.0224ZM84.2623 43.602C84.356 43.6301 84.4466 43.6582 84.5404 43.6895C85.4372 42.6176 86.2935 41.5052 87.2497 40.4864C87.8434 39.8521 87.9059 39.324 87.5591 38.5302C86.406 35.8959 85.3404 33.2241 84.1998 30.468C85.3154 30.0086 86.3372 29.5867 87.4372 29.1336C88.934 32.7304 90.4058 36.2084 91.8058 39.7146C91.9277 40.0208 91.6808 40.5989 91.4308 40.9083C89.534 43.2395 87.5841 45.5301 85.6716 47.8488C85.4435 48.1269 85.1247 48.5644 85.1997 48.8237C85.7591 50.7362 86.5872 52.5174 88.0028 53.9517C88.1559 53.8767 88.2434 53.8611 88.2903 53.808C91.1465 50.3956 94.037 47.0082 96.8401 43.5489C98.09 42.0052 98.2588 40.199 97.5088 38.3521C95.4245 33.2241 93.3339 28.0961 91.1965 22.99C91.0558 22.6494 90.4965 22.2994 90.1152 22.2807C88.5965 22.1994 87.0716 22.2463 85.5466 22.2463C80.203 22.2525 76.8437 25.59 76.8406 30.9336C76.8312 40.9333 76.8406 50.9299 76.8406 60.9297V62.214H93.8464V52.9361C91.5277 54.5455 90.9121 57.1516 89.8059 59.4891C86.2528 57.9047 83.956 55.2986 82.5373 51.9018C81.0311 48.3019 80.4967 44.5395 80.7905 40.5739C82.0467 40.7021 83.1092 40.8114 84.2716 40.9302V43.602H84.2623ZM22.367 75.1699C26.5388 75.1168 29.8731 76.573 32.3949 79.7792C32.5292 79.951 32.8511 80.101 33.0573 80.0729C33.9792 79.9448 34.9042 79.7885 35.8041 79.551C36.0604 79.4823 36.3385 79.1417 36.4354 78.8667C38.176 73.9043 41.6884 71.1981 46.8726 70.5825C47.1288 70.5513 47.5288 70.5294 47.607 70.3732C48.2694 69.0607 49.2788 67.7545 49.4038 66.3733C49.6757 63.3671 49.4882 60.3172 49.4882 57.2516C45.4101 56.7266 42.0696 54.9923 39.3541 51.8861C37.7947 55.4736 35.5385 58.2547 32.4949 60.3797C29.4574 62.5015 26.0481 63.614 22.367 63.9983V75.1668V75.1699ZM82.2654 79.2667C80.253 82.7853 78.3905 86.0228 76.5656 89.2789C76.3937 89.5883 76.4187 90.032 76.4187 90.4133C76.4093 95.4475 76.4093 100.482 76.4093 105.513C76.4093 105.882 76.4093 106.25 76.4093 106.585H104.487C103.977 106.16 103.684 105.928 103.402 105.675C97.69 100.591 92.0339 95.4413 86.2341 90.4602C84.5529 89.0164 83.5998 87.4727 83.381 85.279C83.1904 83.3603 82.6904 81.476 82.2686 79.2667H82.2654ZM112.074 100.563C111.58 100.16 111.102 99.8224 110.687 99.4224C105.365 94.31 100.059 89.1821 94.7245 84.0853C94.137 83.526 93.9058 82.9604 93.912 82.1541C93.9495 77.1574 93.937 72.1575 93.9401 67.1608C93.9401 66.7451 93.9401 66.3295 93.9401 65.9108H83.4717C83.4592 66.0952 83.4342 66.1733 83.4498 66.2483C84.6685 72.8044 85.8778 79.3604 87.1309 85.9103C87.2153 86.3571 87.5372 86.829 87.884 87.1415C91.9464 90.7976 96.0338 94.4257 100.118 98.06C102.706 100.363 105.299 102.663 107.927 104.997C109.296 103.535 110.599 102.144 112.074 100.566V100.563ZM72.8876 109.453C72.8876 108.888 72.8876 108.466 72.8876 108.041C72.8876 101.913 72.8751 95.7819 72.9188 89.6539C72.9251 88.9571 73.1375 88.1883 73.4782 87.579C75.6844 83.6291 77.8999 79.6854 80.228 75.8074C81.0248 74.4824 81.3467 73.2606 80.903 71.7606C80.553 70.57 80.4155 69.3169 80.1936 68.0889C79.778 65.7952 79.778 65.8483 77.3999 65.7764C76.4593 65.7483 76.0468 66.0733 75.6875 66.9201C72.9782 73.3075 70.2032 79.6636 67.4846 86.0446C67.2189 86.6665 67.0565 87.3852 67.0533 88.0602C67.019 94.7757 67.0315 101.488 67.0283 108.203C67.0283 108.582 67.0283 108.963 67.0283 109.403C67.3252 109.425 67.5096 109.45 67.6971 109.45C69.372 109.45 71.047 109.45 72.8907 109.45L72.8876 109.453ZM90.0652 18.6026C90.0996 18.5339 90.159 18.4651 90.159 18.3964C90.1746 16.0933 90.1996 13.7903 90.1871 11.4872C90.1809 10.281 90.2184 9.05601 90.034 7.87167C89.5934 5.04674 87.3216 3.33116 84.4435 3.52178C81.7779 3.6999 79.7811 5.75922 79.6718 8.53415C79.6061 10.2091 79.6186 11.8903 79.6592 13.5684C79.7186 16.109 81.3873 18.237 83.9123 18.5495C85.9341 18.7995 88.0122 18.5995 90.0652 18.5995V18.6026ZM60.2535 116.472C64.1065 116.472 67.6752 116.5 71.2407 116.453C72.1657 116.441 72.7407 115.809 72.8532 114.891C72.925 114.291 72.8657 113.672 72.8657 113.003C70.4251 113.003 68.0846 112.86 65.7721 113.044C63.5597 113.222 61.741 114.341 60.2535 116.472ZM108.38 114.416C108.565 114.4 108.671 114.425 108.708 114.385C111.118 111.838 113.543 109.303 115.911 106.719C116.571 106 116.508 105.125 115.855 104.385C115.455 103.935 114.974 103.557 114.502 103.122C112.958 104.772 111.446 106.291 110.046 107.913C108.43 109.785 107.93 111.981 108.38 114.416Z" fill="#84928E"/>
<path d="M51.2943 84.1831C51.2943 85.1362 51.313 86.1018 51.2786 87.0643C51.2724 87.2424 51.0693 87.5393 50.9224 87.5643C48.4475 87.9643 47.9319 89.7549 47.8225 91.8486C47.8162 91.9579 47.7662 92.0673 47.8225 91.8611C46.2632 92.1704 44.7538 92.2017 43.5038 92.786C41.9664 93.5048 42.2133 95.2922 42.0039 96.8734C40.0977 96.4016 38.3634 96.6078 36.7884 97.8328C36.5572 97.4391 36.3572 97.1641 36.2228 96.8578C35.5541 95.3422 34.5385 94.3235 32.7541 94.4204C30.9979 94.5173 29.9886 95.5172 29.5417 97.2891C28.4136 97.1797 27.3136 97.0734 26.2168 96.9672C26.273 93.8735 28.9417 91.2173 32.1885 90.9267C34.3291 90.7361 36.204 91.2955 37.7384 92.8423C38.3946 93.5048 38.8415 93.3923 39.2352 92.5642C40.2352 90.4517 41.9195 89.1986 44.1632 88.5955C44.5632 88.4893 44.9726 88.0705 45.1851 87.6893C46.4788 85.3644 48.8256 83.9488 51.2974 84.1738L51.2943 84.1831Z" fill="#84928E"/>
<path d="M15.3574 13.6309H18.7105V17.0245H15.3574V13.6309Z" fill="#84928E"/>
<path d="M25.7671 13.6406V17.0187H22.3984V13.6406H25.7671Z" fill="#84928E"/>
</svg>
