<svg width="92" height="90" viewBox="0 0 92 90" fill="none" xmlns="http://www.w3.org/2000/svg">
<path fill-rule="evenodd" clip-rule="evenodd" d="M46.0003 47.0259L17.1173 1.90937C15.922 0.0454857 13.4767 -0.553555 11.5626 0.55842C10.9532 0.910827 10.2853 1.29457 9.66416 1.65486C8.6876 2.21871 7.98056 3.16238 7.71106 4.25882C7.44543 5.35917 7.63293 6.51816 8.2384 7.47356L39.5824 57.0498L30.4144 71.3653C30.0081 72.0035 29.2035 72.2619 28.5003 71.9722L13.8633 65.9382C10.918 64.7283 7.5625 65.065 4.918 66.8427C2.2735 68.6204 0.6875 71.6002 0.6875 74.7915V80.434C0.6875 82.9713 1.6953 85.4029 3.4844 87.2003C5.2735 88.9898 7.7032 90 10.2344 90H23.0114C28.3473 90 33.3124 87.2629 36.1674 82.7442L45.9994 67.1988L55.8314 82.7442C58.6869 87.2629 63.6517 90 68.9874 90H81.7644C84.2956 90 86.7253 88.9898 88.5144 87.2003C90.3035 85.4029 91.3113 82.9713 91.3113 80.434V74.7915C91.3113 71.6002 89.7254 68.6205 87.0808 66.8427C84.4363 65.065 81.0808 64.7282 78.1355 65.9382L63.4985 71.9722C62.7954 72.2619 61.9907 72.0035 61.5844 71.3653L52.4125 57.0498L83.7605 7.47356C84.366 6.51814 84.5535 5.35907 84.2878 4.25882C84.0183 3.16238 83.3113 2.21871 82.3347 1.65486C81.7136 1.29462 81.0456 0.910878 80.4363 0.55842C78.5222 -0.553656 76.073 0.0454658 74.8816 1.90937L46.0003 47.0259ZM52.4144 71.4948L56.3558 69.0044L58.9535 73.061C60.1801 74.9718 62.5902 75.7316 64.6879 74.8662L79.3249 68.8361C81.3054 68.0216 83.5632 68.2526 85.3405 69.443C87.1178 70.6412 88.1882 72.646 88.1882 74.7918V80.4342C88.1882 82.1414 87.5085 83.7743 86.3054 84.9843C85.1023 86.1903 83.4695 86.8677 81.7663 86.8677H68.9893C64.7237 86.8677 60.7549 84.6828 58.4693 81.0686L52.4144 71.4948ZM35.6414 69.0044L33.0476 73.061C31.821 74.9718 29.4109 75.7316 27.3132 74.8662L12.6762 68.8361C10.6957 68.0216 8.43786 68.2526 6.66056 69.443C4.88326 70.6412 3.81286 72.646 3.81286 74.7918V80.4342C3.81286 82.1414 4.48864 83.7743 5.69566 84.9843C6.89876 86.1903 8.53156 86.8677 10.2348 86.8677H23.0118C27.2774 86.8677 31.2462 84.6828 33.5318 81.0686L39.5865 71.4947L35.6414 69.0044ZM44.6961 50.7926L14.4891 3.60104C14.1961 3.14291 13.5945 2.99803 13.1258 3.26821L11.2274 4.36856C10.9891 4.50561 10.8133 4.74054 10.7469 5.00681C10.6805 5.27699 10.7274 5.56284 10.8758 5.79777L50.7428 68.8475L54.6686 66.3688L44.6961 50.7926ZM37.3328 66.369L41.2586 68.8477L44.1492 64.2742L41.4304 59.9669L37.3328 66.369ZM50.5558 54.1406L81.1258 5.79732C81.2742 5.56238 81.3211 5.27654 81.2547 5.00636C81.1883 4.7401 81.0125 4.50515 80.7742 4.3681L78.8758 3.26776C78.4071 2.99758 77.8055 3.14246 77.5125 3.60059L47.8565 49.927L50.5558 54.1406ZM46.0011 7.12151C40.0363 7.12151 35.1921 11.977 35.1921 17.9596C35.1921 23.9388 40.0359 28.7946 46.0011 28.7946C51.9663 28.7946 56.8101 23.9392 56.8101 17.9596C56.8101 11.9764 51.9663 7.12151 46.0011 7.12151ZM46.0011 10.254C50.2433 10.254 53.6847 13.7077 53.6847 17.9601C53.6847 22.2086 50.2433 25.6622 46.0011 25.6622C41.7589 25.6622 38.3175 22.2086 38.3175 17.9601C38.3175 13.7077 41.7589 10.254 46.0011 10.254Z" fill="white"/>
</svg>
