<svg width="124" height="120" viewBox="0 0 124 120" fill="none" xmlns="http://www.w3.org/2000/svg">
<path d="M15.9739 66.5448V61.4844H20.9703V66.4167H56.8415V61.4844H61.8698V66.4487H77.1791V71.4771H61.9979V76.6656H77.1791V81.6939H62.03V92.071C62.4784 92.071 62.9268 92.071 63.3751 92.071C66.2256 92.071 69.0761 92.0389 71.9586 92.071C75.0653 92.103 77.2752 94.2809 77.3072 97.3876C77.3393 99.7256 77.3393 102.064 77.3072 104.434C77.2752 106.451 76.4425 107.316 74.4247 107.316C72.0547 107.348 69.6526 107.316 67.1865 107.316V115.035H72.1508V119.999H0.728702V115.099H10.7854V107.316C9.98475 107.316 9.18405 107.316 8.41538 107.316C6.74993 107.316 5.08449 107.348 3.41904 107.316C1.56143 107.284 0.664646 106.419 0.664646 104.562C0.632618 102.16 0.632618 99.7897 0.664646 97.3876C0.696674 94.2809 2.87457 92.071 5.98127 92.0389C9.18405 92.0069 12.3868 92.0069 15.5576 92.0069C15.6216 92.0069 15.7177 91.9749 15.8779 91.9108V81.726H0.696674V76.6976H15.9099V71.5411H0.728702V66.5127L15.9739 66.5448ZM21.0023 91.9428H56.8094V81.758C56.361 81.726 56.0087 81.6939 55.6885 81.6939C44.5748 81.6939 33.4611 81.6939 22.3475 81.6939C22.1873 81.6939 21.9632 81.6299 21.835 81.726C21.5468 81.9502 21.0343 82.2704 21.0343 82.5267C20.9703 85.6654 21.0023 88.7721 21.0023 91.9428ZM72.2148 97.1954H5.66099C5.66099 98.0922 5.66099 98.8929 5.66099 99.6936C5.66099 100.494 5.66099 101.359 5.66099 102.224H72.2148V97.1954ZM51.717 107.444H26.2549V114.971H51.749V107.444H51.717ZM21.0664 76.6335H56.9375C56.9375 75.3204 56.8735 74.1033 56.9696 72.8863C57.0657 71.7333 56.6493 71.4771 55.5283 71.4771C44.5107 71.5091 33.4932 71.5091 22.4436 71.5091C21.9952 71.5091 21.5468 71.5411 21.0664 71.5731V76.6335ZM16.006 107.38V115.003H21.0023V107.38H16.006ZM56.9375 107.38V115.003H61.9339V107.38H56.9375Z" fill="#84928E"/>
<path d="M87.5886 71.5099V88.0682C87.6847 88.1323 87.7488 88.1964 87.8449 88.2604C88.7096 87.2035 89.6064 86.1146 90.4391 85.0897C91.8483 86.5309 92.9373 87.6519 94.2504 89.0291C93.0334 90.1821 91.7843 91.5913 90.311 92.7123C88.037 94.5058 87.2363 96.6197 87.4285 99.5342C87.6847 104.178 87.4926 108.822 87.4926 113.466V115.036H123.236V120H77.4678V115.1H82.4001C82.4322 114.523 82.4642 114.075 82.4642 113.626C82.4642 98.7976 82.3361 83.9687 82.5282 69.1078C82.5603 65.937 81.7275 63.7271 79.3895 61.7414C77.1796 59.8517 75.2259 57.6098 73.1761 55.56C74.3932 54.407 75.4821 53.3181 76.8593 51.9729C78.5568 53.7664 80.3503 55.6561 82.1439 57.5457C82.24 57.4817 82.3361 57.4176 82.4642 57.3536V33.3007H87.4926V49.9872C90.4071 46.9445 93.0654 44.1261 95.7557 41.3076C97.229 42.7809 98.35 43.9339 99.567 45.151C96.012 48.674 92.4889 52.2291 88.8697 55.7522C87.8769 56.713 87.3965 57.6738 87.4605 59.0831C87.5566 61.4531 87.4926 63.8552 87.4926 66.2573C87.8769 66.3214 88.1651 66.3854 88.4534 66.3854C92.7131 66.3854 96.9728 66.4495 101.232 66.3534C109.976 66.1292 117.278 59.1471 118.207 50.2114C119.104 41.4998 113.467 33.3327 105.044 31.1868C102.642 30.5783 102.033 29.7135 102.514 27.2154C103.731 20.5216 102.321 14.5964 97.3251 9.7602C91.6562 4.28344 82.7204 3.29058 75.7704 7.39014C68.9164 11.4257 65.5855 19.5607 67.6353 27.2154C68.2118 29.3292 67.4752 30.5783 65.3613 31.1228C54.8242 33.8451 49.3154 44.03 52.7103 54.375C53.447 56.6169 52.9986 57.866 51.205 58.3785C49.7317 58.7948 48.7389 58.2824 48.1303 56.681C46.1766 51.3964 46.0806 46.0798 47.9702 40.7952C50.3082 34.2935 54.7281 29.7456 61.1336 27.1513C62.0304 26.799 62.2226 26.4147 62.1265 25.4859C60.6532 9.79223 73.6565 -1.44954 87.5246 0.151854C100.368 1.62513 109.368 12.963 107.83 25.8061C107.734 26.6068 107.958 26.9271 108.663 27.2154C116.606 30.5142 121.346 36.4714 122.979 44.8627C125.414 57.3215 115.869 70.1647 103.186 71.2857C98.5422 71.702 93.8341 71.4778 89.126 71.5419C88.7096 71.5099 88.2292 71.5099 87.5886 71.5099Z" fill="#84928E"/>
<path d="M28.5612 35.67H23.757C23.2766 31.09 20.7464 28.4637 16.0703 27.9513V23.019C19.9137 23.083 23.0204 24.5563 25.6466 27.3748C29.2017 21.3535 34.3582 18.1508 41.4043 17.8945V22.7948C33.7497 23.5955 29.3939 27.7591 28.5612 35.67Z" fill="#84928E"/>
</svg>
