<svg width="77" height="90" viewBox="0 0 77 90" fill="none" xmlns="http://www.w3.org/2000/svg">
<path d="M38.5507 90C38.5507 90 58.472 71.3933 65.2473 64.5169C72.0226 57.6405 76.2698 48.236 76.2698 37.8202C76.3709 16.8876 59.3822 0 38.5507 0C17.7192 0 0.730469 16.8876 0.730469 37.8202C0.730469 48.5393 5.17991 58.1461 12.3597 65.0225C19.135 71.5955 38.5507 90 38.5507 90ZM38.5507 5.05618C56.6518 5.05618 71.3147 19.7191 71.3147 37.8202C71.3147 46.5169 67.8765 54.809 61.708 60.9775C56.6518 65.9326 44.517 77.3596 38.5507 83.0225C32.6855 77.4607 20.7529 66.1348 15.7979 61.382C9.32597 55.1124 5.78665 46.8202 5.78665 37.8202C5.78665 19.7191 20.4496 5.05618 38.5507 5.05618Z" fill="white"/>
<path d="M22.3702 46.9217L36.2241 41.461L37.4376 52.5846L32.887 55.6183C32.6848 55.7194 32.5837 56.0228 32.5837 56.225V56.9329C32.5837 57.4385 33.0893 57.7419 33.4938 57.6408L38.7522 55.8206L44.0106 57.6408C44.5162 57.843 44.9207 57.4385 44.9207 56.9329V56.225C44.9207 56.0228 44.8196 55.7194 44.6174 55.6183L40.0668 52.5846L41.2803 41.461L55.1342 46.9217C55.6398 47.1239 56.1455 46.7194 56.1455 46.2138V43.6857C56.1455 43.4835 56.0443 43.2812 55.8421 43.079L41.2803 31.9554L40.0668 19.5172C40.0668 19.4161 39.9657 19.2138 39.8646 19.1127L39.2578 18.3037C38.9544 18.0003 38.4488 18.0003 38.1455 18.3037L37.5387 19.1127C37.4376 19.2138 37.3365 19.3149 37.3365 19.5172L36.123 31.9554L21.5612 43.079C21.3589 43.1801 21.2578 43.3824 21.2578 43.6857V46.2138C21.4601 46.8206 21.9657 47.1239 22.3702 46.9217Z" fill="white"/>
</svg>
