<svg width="116" height="120" viewBox="0 0 116 120" fill="none" xmlns="http://www.w3.org/2000/svg">
<path d="M58.2289 21.2744C58.2289 23.4371 54.9824 23.4371 54.9824 21.2744C54.9824 19.1117 58.2289 19.1117 58.2289 21.2744Z" fill="#84928E"/>
<path d="M66.2358 29.2822C66.2358 31.4497 62.9941 31.4497 62.9941 29.2822C62.9941 27.1195 66.2358 27.1195 66.2358 29.2822Z" fill="#84928E"/>
<path d="M73.7731 38.4394C74.2327 37.9749 74.373 37.2782 74.1214 36.6734C73.8699 36.0638 73.2796 35.6719 72.6216 35.6719C71.9685 35.6719 71.3734 36.0638 71.1267 36.6734C70.8751 37.2782 71.0106 37.9749 71.475 38.4394C72.1088 39.0732 73.1344 39.0732 73.7731 38.4394Z" fill="#84928E"/>
<path d="M81.7757 46.4481C82.2402 45.9836 82.3805 45.2869 82.1289 44.6773C81.8774 44.0725 81.2871 43.6758 80.6291 43.6758C79.9712 43.6758 79.3809 44.0725 79.1293 44.6773C78.8777 45.2869 79.018 45.9836 79.4825 46.4481C79.7825 46.7529 80.1986 46.9271 80.6292 46.9271C81.0598 46.9271 81.4758 46.7529 81.7757 46.4481Z" fill="#84928E"/>
<path d="M90.2621 53.3076C90.2621 55.4703 87.0156 55.4703 87.0156 53.3076C87.0156 51.1449 90.2621 51.1449 90.2621 53.3076Z" fill="#84928E"/>
<path d="M44.6344 51.5624C45.0989 51.0979 45.2344 50.4012 44.9828 49.7964C44.7312 49.1868 44.1409 48.7949 43.4878 48.7949C42.8298 48.7949 42.2396 49.1868 41.988 49.7964C41.7364 50.4012 41.8719 51.0979 42.3363 51.5624C42.6412 51.8672 43.0524 52.0414 43.4879 52.0414C43.9185 52.0414 44.3296 51.8672 44.6344 51.5624Z" fill="#84928E"/>
<path d="M52.6305 59.5692C53.095 59.1047 53.2305 58.4032 52.9789 57.7984C52.7273 57.1936 52.137 56.7969 51.4791 56.7969C50.8259 56.7969 50.2356 57.1936 49.9841 57.7984C49.7325 58.4032 49.868 59.1047 50.3324 59.5692C50.6372 59.874 51.0485 60.0433 51.4791 60.0433C51.9097 60.0433 52.3257 59.874 52.6305 59.5692Z" fill="#84928E"/>
<path d="M61.1273 66.4287C61.1273 68.5914 57.8809 68.5914 57.8809 66.4287C57.8809 64.266 61.1273 64.266 61.1273 66.4287Z" fill="#84928E"/>
<path d="M47.5121 31.9951C47.5121 34.1578 44.2656 34.1578 44.2656 31.9951C44.2656 29.8324 47.5121 29.8324 47.5121 31.9951Z" fill="#84928E"/>
<path d="M55.0455 41.1493C55.5099 40.6848 55.6454 39.9881 55.3938 39.3785C55.1471 38.7737 54.552 38.377 53.8988 38.377C53.2408 38.377 52.6506 38.7737 52.399 39.3785C52.1475 39.9881 52.2878 40.6848 52.7474 41.1493C53.386 41.7782 54.4117 41.7782 55.0455 41.1493Z" fill="#84928E"/>
<path d="M63.0483 49.1571C63.5176 48.6926 63.653 47.9959 63.4063 47.3911C63.1547 46.7815 62.5596 46.3848 61.9065 46.3848C61.2485 46.3848 60.6582 46.7815 60.4067 47.3911C60.1551 47.9959 60.2954 48.6926 60.7599 49.1571C61.0647 49.4619 61.4759 49.6361 61.9065 49.6361C62.3371 49.6361 62.7483 49.4619 63.0483 49.1571Z" fill="#84928E"/>
<path d="M71.5336 56.0221C71.5336 58.1848 68.2871 58.1848 68.2871 56.0221C68.2871 53.8546 71.5336 53.8546 71.5336 56.0221Z" fill="#84928E"/>
<path d="M79.5453 64.0244C79.5453 66.1871 76.2988 66.1871 76.2988 64.0244C76.2988 61.8617 79.5453 61.8617 79.5453 64.0244Z" fill="#84928E"/>
<path d="M76.5746 19.7938C77.039 19.3293 77.1793 18.6278 76.9278 18.023C76.6762 17.4182 76.0859 17.0215 75.4279 17.0215C74.77 17.0215 74.1797 17.4182 73.9281 18.023C73.6766 18.6278 73.8169 19.3293 74.2813 19.7938C74.5861 20.0938 74.9974 20.2679 75.428 20.2679C75.8586 20.2679 76.2698 20.0938 76.5746 19.7938Z" fill="#84928E"/>
<path d="M84.9652 26.5768C84.9652 28.7395 81.7188 28.7395 81.7188 26.5768C81.7188 24.4093 84.9652 24.4093 84.9652 26.5768Z" fill="#84928E"/>
<path d="M92.8901 34.5009C92.8901 36.6636 89.6484 36.6636 89.6484 34.5009C89.6484 32.3382 92.8901 32.3382 92.8901 34.5009Z" fill="#84928E"/>
<path d="M114.352 95.1834C112.538 88.5938 107.39 83.4458 100.801 81.6271C100.539 81.4674 100.244 81.3707 99.9347 81.3465H99.9057C94.3465 80.0741 88.5117 81.2933 83.9254 84.6752C79.3388 88.062 76.4552 93.2775 76.0294 98.9623C75.6036 104.647 77.6744 110.235 81.7046 114.27C85.7397 118.3 91.3278 120.371 97.0123 119.945C102.697 119.519 107.913 116.636 111.299 112.049C114.681 107.463 115.901 101.628 114.628 96.0689V96.0351C114.604 95.7351 114.507 95.4447 114.352 95.1834ZM109.906 94.7335C107.574 95.6527 105.803 97.6074 105.116 100.017L104.889 100.728V100.723C104.56 101.875 104.134 102.997 103.621 104.081C101.831 107.424 98.0715 109.205 94.3509 108.479C90.8626 107.845 88.1338 105.121 87.4951 101.633C86.7742 97.917 88.5498 94.1626 91.8786 92.3627C92.9769 91.845 94.109 91.4144 95.275 91.0805L95.9669 90.858C98.3763 90.1709 100.326 88.4001 101.241 86.0681C105.208 87.6212 108.353 90.7662 109.906 94.7335ZM95.6819 115.601C87.2295 115.601 80.3742 108.745 80.3742 100.294C80.3742 91.8363 87.23 84.9858 95.6819 84.9858C96.1802 85.01 96.6737 85.0632 97.1672 85.1358C96.5963 86.0309 95.7109 86.6695 94.69 86.9307L94.0224 87.1436L94.0175 87.1485C92.6338 87.55 91.2791 88.0677 89.9825 88.7015C85.0426 91.3094 82.3816 96.8346 83.4314 102.326C83.8717 104.876 85.0959 107.222 86.9295 109.051C88.7535 110.885 91.1097 112.109 93.6595 112.549C94.4239 112.675 95.1932 112.738 95.9673 112.743C100.709 112.801 105.083 110.188 107.274 105.984C107.898 104.697 108.411 103.357 108.808 101.982L109.031 101.291C109.297 100.27 109.935 99.3843 110.826 98.8134C110.903 99.3069 110.956 99.8053 110.98 100.304C110.966 108.746 104.125 115.588 95.6813 115.603L95.6819 115.601Z" fill="#84928E"/>
<path d="M4.40357 106.321C8.03709 109.945 13.9204 109.945 17.5536 106.321L34.0913 89.808L34.0864 89.8031C34.6912 89.208 35.025 88.3952 35.025 87.5485C35.0057 87.3308 34.9621 87.1131 34.8992 86.905C40.052 83.9053 45.6062 81.6362 51.3923 80.175C53.9372 80.5766 56.5063 80.7798 59.0802 80.7798C72.2501 80.6927 85.0571 76.4593 95.6817 68.6843C103.573 63.5074 108.764 55.0982 109.862 45.7271C110.588 35.7216 105.629 25.3151 95.1255 14.8057L95.0772 14.7573C84.5588 4.28262 74.1512 -0.651915 64.1893 0.0689423C54.8176 1.16722 46.4131 6.35861 41.2321 14.2446C31.8363 26.9834 27.7191 42.8584 29.7315 58.5575C28.2752 64.3296 26.0158 69.8693 23.0209 75.0171C22.8177 74.9494 22.6048 74.9107 22.3871 74.8913C21.5404 74.8913 20.7276 75.23 20.1325 75.8299L3.59485 92.3428C-0.0290115 95.9811 -0.0290115 101.864 3.59485 105.498L4.40357 106.321ZM44.5412 16.7313V16.7265C49.0166 9.81751 56.3175 5.23089 64.485 4.20064C65.022 4.16193 65.5591 4.14258 66.1009 4.14258C74.3888 4.14258 83.16 8.7147 92.2376 17.7918C101.827 27.3957 106.365 36.6951 105.732 45.4519L105.727 45.4568C104.697 53.6238 100.115 60.9193 93.2063 65.3956C81.2171 74.1915 66.2955 78.018 51.5539 76.0784H51.4958C47.0785 75.5316 42.9272 73.6641 39.584 70.7225L39.0422 70.1854C36.2069 66.9341 34.4071 62.9087 33.8701 58.6269C33.8604 58.4383 33.8265 58.2496 33.7636 58.0754C31.9638 43.4155 35.8199 28.6255 44.5432 16.7128L44.5412 16.7313ZM36.113 73.0771L36.8097 73.7787H36.8146C38.8369 75.6946 41.2222 77.1848 43.83 78.1622C39.8191 79.5169 35.9825 81.336 32.3973 83.5858L26.3253 77.5139C28.5751 73.9288 30.3894 70.0872 31.7393 66.0763C32.7118 68.6793 34.202 71.0596 36.113 73.0771ZM22.382 79.4104L30.5054 87.5241L25.0092 93.0252L11.796 89.9868L22.382 79.4104ZM6.51325 95.2792L8.36147 93.4309L21.5747 96.4742L14.6463 103.398C12.6239 105.415 9.35334 105.415 7.3358 103.398L6.50846 102.57V102.575C4.51025 100.553 4.5102 97.2967 6.51325 95.2792Z" fill="#84928E"/>
</svg>
