<svg width="162" height="120" viewBox="0 0 162 120" fill="none" xmlns="http://www.w3.org/2000/svg">
<path d="M0.132812 2.50081C0.983563 0.553977 2.52679 0 4.56859 0C55.5384 0.0276989 106.512 0.0237419 157.482 0.0237419C160.818 0.0237419 161.843 1.04069 161.843 4.35664C161.843 9.88454 161.756 15.4164 161.862 20.9443C162.037 29.8435 156.042 36.5744 148.357 37.5597C147.321 37.6942 147.297 38.3115 147.297 39.1108C147.317 43.6376 147.348 48.1683 147.297 52.6951C147.032 76.2431 137.484 95.0743 118.11 108.516C104.672 117.839 89.5289 121.554 73.2855 119.41C48.3921 116.122 30.7361 102.711 20.2066 80.0022C16.2812 71.5343 14.738 62.4688 14.7064 53.1502C14.6905 48.4651 14.6905 43.7761 14.7143 39.091C14.7143 38.2759 14.6589 37.6784 13.634 37.5597C6.76075 36.7603 0.963778 30.6785 0.386059 23.912C0.370231 23.7221 0.219866 23.5401 0.132812 23.3541V2.50081ZM45.8557 102.64C46.0061 102.549 46.1564 102.462 46.3068 102.371V100.709C46.3068 93.7092 46.2989 86.7053 46.3068 79.7054C46.3147 72.6462 48.127 66.129 51.9099 60.1184C59.4519 48.1367 74.9514 41.7897 88.6979 45.1689C104.941 49.1615 115.629 62.6983 115.708 79.4364C115.744 86.5431 115.712 93.6498 115.716 100.757C115.716 101.303 115.764 101.849 115.791 102.486C116.116 102.339 116.266 102.3 116.385 102.209C131.643 90.6584 139.905 75.3132 141.001 56.2287C141.33 50.5069 141.076 44.7534 141.08 39.0158C141.08 38.6637 141.021 38.3115 140.985 37.9197H21.089C21.0296 38.1413 20.9505 38.2877 20.9544 38.4341C21.0375 45.3272 20.7724 52.244 21.2947 59.1015C22.3829 73.3228 28.2828 85.5064 38.1792 95.7233C40.5692 98.1925 43.2876 100.337 45.8597 102.632V102.64H45.8557ZM155.563 6.35095H6.48376C6.48376 12.0767 6.48376 17.6996 6.49168 23.3224C6.49168 23.5796 6.58269 23.8408 6.64204 24.094C7.73813 28.7514 11.4062 31.6123 16.4237 31.6123C59.5429 31.6202 102.662 31.6163 145.781 31.6163C146.149 31.6163 146.517 31.6084 146.885 31.5886C150.32 31.4145 154.415 28.4072 154.803 25.1822H107.577C104.779 25.1822 103.264 24.1257 103.212 22.1512C103.157 20.1331 104.747 18.9816 107.596 18.9816H155.559V6.35095H155.563ZM109.496 91.2519H109.187C109.187 85.8348 109.674 80.3663 109.092 75.0164C107.668 61.9188 96.3784 51.4724 83.2729 50.5425C66.6536 49.3673 52.7013 62.176 52.547 78.8349C52.4678 87.6273 52.547 96.4197 52.5074 105.212C52.5074 106.249 52.8002 106.783 53.7618 107.246C71.9599 116.027 90.1304 116.015 108.317 107.218C109.203 106.791 109.527 106.296 109.52 105.311C109.468 100.626 109.496 95.9409 109.496 91.2519Z" fill="#84928E"/>
<path d="M96.7275 22.061C96.7473 23.6319 95.3545 25.096 93.7638 25.1672C92.1414 25.2424 90.6021 23.7704 90.5784 22.1243C90.5547 20.4901 92.0702 18.9864 93.7005 19.0181C95.2912 19.0497 96.7078 20.4742 96.7275 22.061Z" fill="#84928E"/>
<path d="M80.9823 101.021C68.8462 100.993 58.8588 90.9385 58.9498 78.846C59.0408 66.7495 68.9887 56.8649 81.0456 56.8926C93.1777 56.9203 103.169 66.975 103.078 79.0676C102.987 91.164 93.0392 101.049 80.9823 101.021ZM80.9071 94.8005C89.5966 94.8361 96.834 87.674 96.8577 79.024C96.8775 70.4136 89.7549 63.1724 81.1999 63.113C72.4946 63.0537 65.2177 70.1802 65.1702 78.8064C65.1227 87.4999 72.269 94.7609 80.9071 94.7965V94.8005Z" fill="#84928E"/>
<path d="M81.0727 88.3747C75.9602 88.4301 71.5838 84.0695 71.5997 78.9413C71.6194 73.8566 75.8574 69.6028 80.954 69.5474C86.0664 69.492 90.4428 73.8526 90.427 78.9808C90.4072 84.0656 86.1693 88.3193 81.0727 88.3747ZM84.1987 78.9254C84.1789 77.2002 82.6555 75.7282 80.9381 75.7717C79.2762 75.8153 77.8517 77.2516 77.824 78.9136C77.7963 80.6309 79.2841 82.1425 81.0054 82.1425C82.7267 82.1425 84.2185 80.6388 84.1987 78.9215V78.9254Z" fill="#84928E"/>
</svg>
