<svg width="40" height="39" viewBox="0 0 40 39" fill="none" xmlns="http://www.w3.org/2000/svg">
<path d="M31.6667 0H8.33333C3.73333 0 0 3.61111 0 8.06052V30.63C0 35.0794 3.73333 38.6905 8.33333 38.6905H31.6667C36.2667 38.6905 40 35.0794 40 30.63V8.06052C40 3.61111 36.2667 0 31.6667 0ZM36.6667 30.63C36.6667 33.2899 34.4167 35.4663 31.6667 35.4663H8.33333C5.58333 35.4663 3.33333 33.2899 3.33333 30.63V8.06052C3.33333 5.40055 5.58333 3.22421 8.33333 3.22421H31.6667C34.4167 3.22421 36.6667 5.40055 36.6667 8.06052V30.63Z" fill="white"/>
<path d="M20.0007 8.0625C13.5673 8.0625 8.33398 13.1245 8.33398 19.3472C8.33398 25.5699 13.5673 30.6319 20.0007 30.6319C26.434 30.6319 31.6673 25.5699 31.6673 19.3472C31.6673 13.1245 26.434 8.0625 20.0007 8.0625ZM20.0007 27.4077C15.4007 27.4077 11.6673 23.7966 11.6673 19.3472C11.6673 14.8978 15.4007 11.2867 20.0007 11.2867C24.6007 11.2867 28.334 14.8978 28.334 19.3472C28.334 23.7966 24.6007 27.4077 20.0007 27.4077Z" fill="white"/>
<path d="M31.6667 9.67342C32.5871 9.67342 33.3333 8.95166 33.3333 8.06132C33.3333 7.17098 32.5871 6.44922 31.6667 6.44922C30.7462 6.44922 30 7.17098 30 8.06132C30 8.95166 30.7462 9.67342 31.6667 9.67342Z" fill="white"/>
</svg>
