<svg width="122" height="120" viewBox="0 0 122 120" fill="none" xmlns="http://www.w3.org/2000/svg">
<path d="M73.0325 19.9894V59.918H98.9945C99.0613 59.6841 99.1615 59.4502 99.1615 59.2163C99.1615 54.1041 99.2283 48.9919 99.1615 43.8797C99.0947 40.1709 96.6555 37.1303 93.214 36.2281C89.739 35.2926 86.0636 36.6291 84.3261 39.7365C83.5576 41.1065 83.1567 42.8105 83.0564 44.4143C82.8559 47.4215 83.023 50.4621 82.9896 53.4693C82.9896 55.0731 82.2545 55.9753 81.0182 55.9418C79.8488 55.9084 79.1471 55.0397 79.1471 53.5027C79.1471 50.295 79.1137 47.0874 79.1471 43.8797C79.2808 37.2305 84.5266 32.0181 91.0756 32.0181C97.6245 32.0181 102.904 37.2305 103.004 43.8797C103.071 48.6912 103.004 53.5027 103.037 58.2808C103.037 58.8154 103.037 59.3166 103.037 59.918H109.185C109.185 59.3834 109.185 58.9156 109.185 58.4478C109.185 52.7008 109.185 46.9871 109.185 41.2401C109.185 40.8726 109.185 40.5384 109.185 40.1709C109.252 38.8678 109.954 38.0659 111.09 38.0325C112.259 37.999 113.061 38.8344 113.095 40.2043C113.128 44.9155 113.095 49.6268 113.095 54.338C113.095 56.1423 113.095 57.98 113.095 59.9848C114.966 59.9848 116.737 59.9848 118.474 59.9848C120.446 59.9848 121.08 60.6531 121.08 62.6579C121.08 71.5123 121.08 80.3668 121.08 89.2212C121.08 89.5888 121.114 89.9563 121.047 90.2905C120.847 91.2594 120.212 91.8943 119.209 91.9277C118.14 91.9611 117.472 91.3263 117.238 90.2905C117.138 89.8561 117.205 89.4217 117.205 88.9539C117.205 81.2021 117.205 73.4837 117.205 65.7319C117.205 65.1973 117.205 64.6627 117.205 64.0278H65.0802V115.952H117.138C117.171 115.551 117.205 115.083 117.205 114.615C117.205 109.403 117.205 104.224 117.205 99.0113C117.205 98.6437 117.171 98.3096 117.205 97.942C117.338 96.806 118.006 96.1043 119.143 96.1043C120.279 96.1043 120.947 96.806 121.08 97.9086C121.147 98.6103 121.114 99.312 121.114 100.047C121.114 105.828 121.114 111.608 121.114 117.388C121.114 119.293 120.446 119.995 118.574 119.995C100.264 119.995 81.9538 119.995 63.6435 119.995C61.7389 119.995 61.0707 119.326 61.0707 117.422C61.0707 115.417 61.0707 113.446 61.0707 111.24C59.1995 111.24 57.4286 111.24 55.6577 111.24C53.653 111.24 53.0515 110.639 53.0515 108.601C53.0515 100.147 53.0515 91.6938 53.0515 83.2403C53.0515 82.8059 53.0515 82.3716 53.0515 81.9372L52.7508 81.837C50.6124 85.1783 48.4739 88.4862 46.3021 91.8609C48.7078 92.4623 48.9417 92.763 48.9417 95.1688C48.9417 97.207 48.9417 99.2452 48.9417 101.317C48.9417 103.322 48.2735 103.99 46.3355 103.99C44.0968 103.99 41.8916 104.023 39.6529 103.956C38.7841 103.923 38.283 104.257 37.8486 104.959C35.376 108.868 32.8032 112.711 30.3641 116.653C28.9273 118.959 26.9559 120.028 24.2829 119.995C17.4332 119.961 10.5501 119.995 3.70045 119.995C3.2995 119.995 2.89854 120.028 2.49758 119.928C1.5286 119.661 0.793517 118.959 1.02741 118.023C1.19447 117.322 1.89615 116.72 2.49758 116.219C2.76489 115.985 3.36632 116.119 3.80069 116.119C10.617 116.119 17.4332 116.085 24.2495 116.119C25.5526 116.119 26.4213 115.651 27.123 114.582C38.3164 97.1735 49.5432 79.7988 60.6363 62.3572C61.7723 60.5863 62.9084 59.8178 64.9132 60.0182C66.2163 60.1519 67.5862 60.0517 69.0229 60.0517V55.9753C67.4525 55.9753 65.8153 55.9753 64.2115 55.9753C59.2998 56.0087 60.3356 55.3738 57.6625 59.517C46.6696 76.3906 35.777 93.2976 24.9511 110.205C24.1492 111.474 23.2137 112.009 21.6767 112.009C15.6623 111.942 9.64797 111.976 3.63363 111.976C1.5286 111.976 0.893756 111.341 0.893756 109.302C0.893756 95.7702 0.893756 82.2713 0.893756 68.739C0.893756 68.3381 0.860343 67.9371 0.960583 67.5362C1.22789 66.634 1.82932 66.0994 2.7983 66.066C3.76728 66.066 4.43554 66.5672 4.66943 67.4693C4.80308 67.9705 4.76967 68.5386 4.76967 69.0398C4.76967 81.436 4.76967 93.8657 4.76967 106.262V107.933H8.91289C8.91289 107.431 8.91289 106.964 8.91289 106.496C8.91289 79.899 8.91289 53.3022 8.91289 26.7054C8.91289 26.3379 8.9463 25.9703 8.87947 25.6362C8.679 24.5336 8.01074 23.8987 6.87469 23.8987C5.73865 23.8987 5.07039 24.5336 4.86991 25.6362C4.80308 26.0706 4.8365 26.5384 4.8365 26.9727C4.8365 37.5981 4.8365 48.2234 4.8365 58.8488C4.8365 59.2832 4.86991 59.7509 4.80308 60.1853C4.6026 61.2211 3.93434 61.856 2.86513 61.8225C1.7625 61.7891 1.16106 61.1209 0.960583 60.0851C0.893756 59.9848 0.893756 59.7843 0.893756 59.6173C0.893756 48.3571 0.860343 37.0969 0.893756 25.8701C0.893756 23.3307 2.531 21.1923 4.8365 20.357C7.07517 19.555 9.74821 20.0562 11.1516 21.9608C11.9869 23.0634 12.321 24.567 12.7888 25.9369C12.9559 26.505 12.8222 27.1732 12.8222 28.0085C15.395 28.0085 17.9344 28.0085 20.4404 28.0085C20.6075 28.0085 20.8413 27.8415 20.9416 27.6744C22.5788 25.4023 23.8485 25.4691 25.018 27.9751H40.8558C40.956 27.7412 41.0228 27.3737 41.2233 27.2066C41.7913 26.7723 42.4262 26.1708 43.0276 26.1374C43.5622 26.104 44.3641 26.672 44.6648 27.2066C45.0324 27.8749 45.4333 28.042 46.1016 28.0085C48.3737 27.9751 50.6124 28.0085 53.0515 28.0085C53.0515 27.24 53.0181 26.5718 53.0515 25.9035C53.1518 22.5622 55.7914 19.956 59.0659 19.9894C62.2735 20.0228 64.9466 22.5622 64.98 25.8367C65.0468 32.4191 65.0134 39.0014 65.0134 45.5838C65.0134 46.9537 64.2449 47.8559 63.1088 47.8893C61.9394 47.9227 61.1041 47.0206 61.1041 45.5838C61.1041 39.2353 61.1041 32.8534 61.1041 26.505C61.1041 25.5026 60.937 24.6338 59.968 24.1326C58.7652 23.5312 57.3284 24.1995 57.0611 25.5026C56.9943 25.8033 56.9943 26.104 56.9943 26.4381C56.9943 35.1255 56.9943 43.7795 56.9943 52.4669C56.9943 52.7342 57.0277 53.0015 57.0611 53.4025C60.8368 50.9299 65.0134 52.5671 69.0229 51.8989V19.8892C67.8201 19.8892 66.6172 19.8892 65.4478 19.8892C64.412 19.8892 63.5766 19.555 63.2425 18.5192C62.9084 17.4834 63.3761 16.7483 64.2115 16.1135C70.3595 11.6696 76.4407 7.19221 82.5886 2.78169C87.8011 -0.927154 94.0827 -0.893741 99.4288 2.68145C100.364 3.3163 101.233 3.95115 102.135 4.65282C103.238 5.48815 103.472 6.59078 102.77 7.52635C102.068 8.46191 100.966 8.56215 99.8298 7.76024C98.8608 7.09198 97.9586 6.3903 96.9897 5.75545C93.4145 3.34972 88.8035 3.21606 85.2951 5.68863C80.7175 8.86287 76.2736 12.2042 71.7628 15.4787C71.6626 15.5455 71.5958 15.6791 71.3953 15.913H110.923C109.486 14.8438 108.283 14.0085 107.08 13.1063C106.679 12.7722 106.045 12.4047 106.011 12.0037C105.944 11.2352 106.011 10.2662 106.446 9.73161C107.114 8.92969 108.15 9.09676 108.985 9.69819C111.524 11.5025 114.03 13.3402 116.57 15.1779C117.071 15.5455 117.572 15.913 118.073 16.2806C118.909 16.882 119.343 17.7507 118.842 18.5861C118.474 19.1875 117.639 19.7555 116.904 19.8558C115.701 20.0562 114.431 19.9226 113.028 19.9226C113.028 20.9918 113.028 21.9608 113.028 22.9298C113.028 25.8367 113.028 28.7102 113.028 31.6171C113.028 33.0205 112.293 33.8558 111.123 33.8892C109.921 33.9226 109.119 33.0539 109.119 31.5837C109.119 27.7746 109.119 23.9656 109.119 20.0228L73.0325 19.9894ZM24.9511 39.9704V92.0613C26.9893 92.0613 28.9273 92.0279 30.8987 92.0948C31.734 92.1282 32.1684 91.794 32.6027 91.1258C35.1755 87.0828 37.8152 83.0732 40.3546 78.9968C40.7221 78.3954 40.956 77.5935 40.956 76.8918C40.9894 65.0636 40.9894 53.2354 40.9894 41.4072V39.9704H24.9511ZM20.8413 91.8943V40.0038H12.9559V108.066C15.6957 108.066 18.3354 108.066 20.9416 108.066C21.2757 108.066 21.7101 107.933 21.8771 107.699C22.6791 106.563 23.4141 105.36 24.3163 103.99C22.4452 103.99 20.9082 103.99 19.3378 103.99C17.7005 103.956 16.9654 103.255 16.932 101.651C16.8986 99.8132 16.932 98.0089 16.932 96.1712C16.932 93.6318 18.1683 92.2618 20.6409 92.0279C20.6743 91.9945 20.7077 91.9611 20.8413 91.8943ZM44.9656 71.7462C45.3999 71.1114 45.6672 70.7772 45.9011 70.4097C48.073 67.035 50.2448 63.6937 52.3833 60.319C52.7508 59.7175 52.9847 58.949 53.0181 58.2473C53.0515 52.6005 53.0515 46.9537 53.0515 41.3403C53.0515 40.906 53.0181 40.4716 52.9847 40.0372H44.999V71.7462H44.9656ZM61.0038 69.541C60.9036 69.5075 60.8033 69.4741 60.7365 69.4073C59.7007 71.0111 58.6315 72.5481 57.6959 74.1854C57.295 74.887 56.9943 75.7224 56.9943 76.5243C56.9608 86.2475 56.9608 95.9707 56.9608 105.727C56.9608 106.228 56.9608 106.73 56.9608 107.231H61.0038V69.541ZM24.9177 35.894H40.9226V32.0181H24.9177V35.894ZM20.8748 32.0181H12.9225V35.9274H20.8748V32.0181ZM44.9656 35.9274H52.9179V32.0181H44.9656V35.9274ZM20.9082 100.047C22.7793 100.047 24.5168 100.047 26.2543 100.047C26.4881 100.047 26.8557 99.9468 26.9559 99.7798C27.7578 98.6103 28.5263 97.374 29.3617 96.0709H20.9082V100.047ZM44.9322 95.8036C42.493 96.238 42.3928 98.5435 40.956 99.9468H44.9322V95.8036Z" fill="#84928E"/>
<path d="M91.2417 108.101C97.1224 108.034 102.268 104.425 104.306 98.979C106.344 93.5327 104.841 87.3847 100.497 83.5087C96.1869 79.6328 89.9052 78.8309 84.6594 81.4706C84.4923 81.5374 84.3587 81.6376 84.1916 81.7379C82.8551 82.4061 81.7524 82.1388 81.1844 81.0696C80.6498 80.0004 81.0842 78.9646 82.4207 78.2629C87.0317 75.8237 91.8098 75.3225 96.7549 76.9932C105.309 79.8667 110.354 88.4205 108.75 97.3083C107.18 105.929 99.3611 112.211 90.4732 111.943C77.2083 111.576 68.8884 97.2415 75.1701 85.5804C75.5042 84.9789 76.0054 84.2772 76.5734 84.1102C77.1749 83.9431 78.077 84.177 78.6116 84.578C79.4135 85.2128 79.2799 86.1484 78.8121 87.0171C77.6092 89.189 76.941 91.5279 76.941 94.0339C77.0078 101.886 83.3897 108.201 91.2417 108.101Z" fill="#84928E"/>
<path d="M80.9849 25.9714C80.9515 27.0072 80.0159 27.9093 78.9801 27.8759C77.9443 27.8425 77.0421 26.8735 77.109 25.8377C77.1758 24.8353 78.0779 24 79.0469 24C80.0827 24 81.0183 24.9356 80.9849 25.9714Z" fill="#84928E"/>
<path d="M103.037 23.9989C104.073 23.9655 105.042 24.8677 105.042 25.9035C105.075 26.9393 104.139 27.8749 103.104 27.8749C102.101 27.8749 101.232 27.0061 101.166 26.0371C101.099 25.0013 102.001 24.0324 103.037 23.9989Z" fill="#84928E"/>
<path d="M71.0612 68.038C72.097 68.0714 73.0326 69.007 72.9658 70.0428C72.9323 71.0786 71.9634 71.9807 70.9276 71.9139C69.9252 71.8471 69.0898 70.9449 69.0898 69.9759C69.0898 68.9401 70.0254 68.0046 71.0612 68.038Z" fill="#84928E"/>
<path d="M111.157 71.9141C110.121 71.9141 109.186 70.9785 109.186 69.9427C109.186 68.9069 110.155 67.9714 111.19 68.0048C112.193 68.0382 113.061 68.9069 113.095 69.9093C113.095 70.9785 112.193 71.9141 111.157 71.9141Z" fill="#84928E"/>
<path d="M72.966 109.97C72.9994 111.006 72.0638 111.942 71.028 111.975C69.9922 111.975 69.0566 111.04 69.0566 110.004C69.0566 109.001 69.9254 108.133 70.9278 108.099C71.997 108.032 72.9326 108.935 72.966 109.97Z" fill="#84928E"/>
<path d="M111.089 108.065C112.125 108.032 113.06 108.967 113.06 110.003C113.06 111.039 112.125 111.975 111.089 111.941C110.087 111.941 109.218 111.072 109.184 110.07C109.151 109.034 110.053 108.099 111.089 108.065Z" fill="#84928E"/>
</svg>
