<svg width="407" height="70" viewBox="0 0 407 70" fill="none" xmlns="http://www.w3.org/2000/svg">
<path d="M13.2163 32.5437C11.5829 33.0205 9.41895 33.1977 6.76018 33.1977H0V0.873047H5.96136C13.3654 0.873047 17.5443 3.30506 17.5443 8.72769C17.5443 10.9008 16.8587 12.6789 15.4578 13.98C14.6232 14.8043 13.4846 15.4515 12.1135 15.9352C13.9734 16.3712 15.4936 17.1478 16.5964 18.2786C18.1881 19.8863 18.9869 21.8823 18.9869 24.2667C18.9869 26.3512 18.4564 28.1702 17.3535 29.6893C16.2924 31.1608 14.8855 32.1213 13.2163 32.5505V32.5437ZM10.1403 3.73423C9.41895 3.29824 8.16707 3.03938 6.15212 3.03938C5.7706 3.03938 5.28176 3.08025 4.86447 3.08025V15.0564C5.05523 15.0972 5.28176 15.0972 5.39503 15.0972C8.28033 15.0972 10.0628 14.5318 10.9749 13.6666C11.887 12.7538 12.3817 11.2823 12.3817 9.02062C12.3817 7.46059 12.1552 6.28887 11.8095 5.54632C11.4279 4.7629 10.8974 4.1566 10.1403 3.72743V3.73423ZM6.08059 17.2295H4.87043V30.7657H7.83323C9.96143 30.7657 11.3624 30.4591 12.2744 29.3759C13.2223 28.2451 13.7529 26.5556 13.7529 24.1236C13.7529 21.6916 13.1806 19.9613 12.0837 18.8713C11.0166 17.829 9.08511 17.2227 6.08059 17.2227V17.2295Z" fill="white"/>
<path d="M43.6734 33.1909C39.3454 33.1909 36.6867 31.6717 33.9504 28.6811C31.1426 25.6905 29.7715 21.6984 29.7715 16.7935C29.7715 11.8886 31.1784 8.16227 33.9862 5.21252C36.794 2.30365 39.417 0.873047 43.6316 0.873047C47.8463 0.873047 50.5051 2.30364 53.3546 5.17164C56.2042 8.08052 57.6468 12.0249 57.6468 16.9706C57.6468 21.9164 56.2817 25.6905 53.5454 28.6879C50.8091 31.6785 48.1146 33.1977 43.6734 33.1977V33.1909ZM43.6376 3.03938C40.639 3.03938 39.2322 4.17023 37.5987 6.51368C36.0071 8.81625 35.1665 12.2429 35.1665 16.9706C35.1665 21.6984 36.0011 25.2545 37.5987 27.557C39.2322 29.8596 40.7106 30.9837 43.9416 30.9837C46.7494 30.9837 48.5378 29.8528 50.1713 27.557C51.8047 25.2545 52.222 21.8279 52.222 17.0115C52.222 12.1952 51.8047 8.898 50.207 6.60224C48.6153 4.21792 46.7137 3.04619 43.6376 3.04619V3.03938Z" fill="white"/>
<path d="M80.9979 2.99069H76.9739V33.1899H72.1154V2.99069H60.8008L60.8783 0.865234H88.3661L88.4019 2.99069H80.9979Z" fill="white"/>
<path d="M108.032 33.1899C106.476 28.7618 105.868 27.1132 105.868 27.1132L103.895 21.6906H94.518L90.649 33.1899H88.2168L99.913 0.865234H101.32L113.32 33.1899H108.044H108.032ZM99.1142 8.42014L95.1618 19.6128H103.174L99.1142 8.42014Z" fill="white"/>
<path d="M144.336 33.1899L125.885 5.46357V32.4064H124.025V0.865234H128.884L143.692 23.4686V0.865234H145.784V33.1899H144.342H144.336Z" fill="white"/>
<path d="M157.631 33.1899V0.865234H162.489V33.1899H157.631Z" fill="white"/>
<path d="M200.761 33.1918H194.001L189.631 27.81L190.43 27.4626C189.178 27.374 188.719 26.8086 188.188 26.2023L180.707 17.6528L179.342 19.1243V33.1849H174.441V0.860335H179.342V16.1336L186.591 8.53785C186.591 8.44929 186.668 8.31987 186.746 8.23131L193.923 0.853516H196.618L190.692 7.189C190.197 7.70674 189.708 8.31986 189.059 8.96703L188.451 9.75045L184.313 14.0422L194.15 25.5006C194.376 25.7595 194.722 26.0184 194.948 26.284L194.114 26.6723C194.913 26.8903 194.984 26.9721 194.984 26.9721L194.907 26.3658C194.984 26.4543 195.02 26.5361 195.062 26.6247L200.755 33.1781L200.761 33.1918Z" fill="white"/>
<path d="M246.634 29.5054C245.722 30.3774 244.625 31.372 243.784 31.7194C241.543 32.6731 239.456 33.1977 237.483 33.1977C233.614 33.1977 230.348 31.7194 227.76 28.7696C225.143 25.8199 223.85 22.0867 223.85 17.5769C223.85 13.0672 225.102 9.24543 227.534 5.90738C230.038 2.52164 233.382 0.873047 237.597 0.873047C241.203 0.873047 244.279 2.35133 246.711 5.51908V6.0845L245.305 7.77397C244.619 6.60224 244.243 6.0845 243.784 5.60763C242.193 3.87048 240.291 3.04619 238.014 3.04619C235.737 3.04619 233.608 3.99992 231.862 6.03681C230.151 7.94427 229.245 11.5003 229.245 16.8412C229.245 22.1821 230.115 25.779 231.79 27.8159C233.459 29.9414 235.546 30.9837 238.056 30.9837C239.307 30.9837 240.488 30.7248 241.513 30.1185C242.538 29.5122 243.147 28.8173 243.486 28.0339C243.868 27.2505 243.981 26.215 243.981 24.8662V18.7896H248.726V24.2531C248.452 27.0529 246.64 29.5054 246.64 29.5054H246.634Z" fill="white"/>
<path d="M275.648 33.1899C274.092 28.7618 273.484 27.1132 273.484 27.1132L271.51 21.6906H262.133L258.264 33.1899H255.832L267.528 0.865234H268.935L280.935 33.1899H275.66H275.648ZM266.723 8.42014L262.771 19.6128H270.783L266.723 8.42014Z" fill="white"/>
<path d="M304.089 18.2251C305.037 19.0085 306.14 20.2211 307.434 22.1763C307.434 22.1763 309.484 25.344 312.256 33.1987H308.078C307.696 31.373 303.863 18.3614 296.721 18.3614L296.036 18.3205V33.2055H291.213V0.880859H297.633C300.215 0.880859 302.343 1.05797 304.012 1.61658C305.681 2.18201 307.088 2.95863 308.155 4.30747C309.216 5.65632 309.747 7.25723 309.747 9.12381C309.747 11.2901 309.061 13.1567 307.654 14.6759C306.557 15.8885 305.037 16.9308 303.1 17.4553C303.404 17.6733 303.744 17.8913 304.083 18.2387L304.089 18.2251ZM297.258 3.25836L296.042 3.21749V16.2359H298.736C299.189 16.2359 299.648 16.1065 300.101 15.977C300.554 15.8476 300.972 15.6705 301.353 15.541C301.997 15.323 302.569 14.8053 303.064 14.2807C303.481 13.8039 303.821 13.2385 304.089 12.4619C304.316 11.6784 304.471 10.7247 304.471 9.55297C304.471 7.46839 304.018 5.94925 303.142 4.77753C302.384 3.69436 300.447 3.25836 297.258 3.25836Z" fill="white"/>
<path d="M344.113 28.7218C343.01 30.0229 341.758 31.0243 340.316 31.6715C338.909 32.3255 337.585 32.7547 336.292 32.9318C335.04 33.1021 333.257 33.1907 331.016 33.1907H323.117V0.818359C329.8 0.859233 331.088 0.859242 331.088 0.859242C335.111 0.859242 338.343 1.55409 340.691 3.03237C343.01 4.46297 344.757 6.41813 345.896 8.93189C347.034 11.4048 347.606 14.266 347.606 17.4814C347.606 19.784 347.302 21.9094 346.694 23.8577C346.051 25.8129 345.216 27.4138 344.113 28.7149V28.7218ZM339.022 6.20693C337.997 4.94665 336.822 4.12235 335.565 3.69317C334.277 3.25718 332.602 3.03919 330.551 3.03919C329.675 3.03919 328.769 3.08006 327.934 3.12775V31.0243H331.654C333.973 31.0243 335.869 30.6769 337.275 29.9821C338.682 29.2872 339.892 27.9452 340.846 25.8606C341.83 23.776 342.325 21.1328 342.325 17.8356C342.325 15.2333 342.021 12.9784 341.448 10.9824C340.876 8.98637 340.083 7.42635 339.016 6.20693H339.022Z" fill="white"/>
<path d="M366.595 2.9915H363.441V15.1379H371.298V17.2634H363.441V31.0175H375.364V33.143H358.541V0.818359H375.435V2.9915H366.589H366.595Z" fill="white"/>
<path d="M405.551 33.1899L387.1 5.46357V32.4064H385.24V0.865234H390.099L404.907 23.4686V0.865234H406.999V33.1899H405.557H405.551Z" fill="white"/>
<path d="M82.2481 66.9052H86.9755V69.017H79.959V53.0488H82.2541V66.8984L82.2481 66.9052Z" fill="white"/>
<path d="M100.002 53.0488V63.2265C100.002 64.4323 100.276 65.3451 100.837 65.9582C101.391 66.5714 102.166 66.8779 103.162 66.8779C104.157 66.8779 104.944 66.5714 105.504 65.9582C106.059 65.3451 106.339 64.4323 106.339 63.2265V53.0488H108.628V63.1788C108.628 64.48 108.384 65.5836 107.883 66.4896C107.388 67.3957 106.726 68.0701 105.892 68.5129C105.063 68.9557 104.145 69.1805 103.138 69.1805C102.13 69.1805 101.218 68.9557 100.396 68.5129C99.5728 68.0701 98.9171 67.3957 98.4342 66.4896C97.9513 65.5904 97.7129 64.48 97.7129 63.1788V53.0488H100.008H100.002Z" fill="white"/>
<path d="M126.856 61.0475L131.202 69.018H128.627L125.473 63.2275L122.517 69.018H119.965L124.311 61.0475L119.947 53.0566H122.517L125.694 58.8948L128.669 53.0566H131.22L126.856 61.0475Z" fill="white"/>
<path d="M144.83 53.0488V63.2265C144.83 64.4323 145.104 65.3451 145.665 65.9582C146.219 66.5714 146.994 66.8779 147.99 66.8779C148.985 66.8779 149.772 66.5714 150.333 65.9582C150.887 65.3451 151.167 64.4323 151.167 63.2265V53.0488H153.456V63.1788C153.456 64.48 153.212 65.5836 152.711 66.4896C152.216 67.3957 151.555 68.0701 150.72 68.5129C149.891 68.9557 148.973 69.1805 147.966 69.1805C146.958 69.1805 146.046 68.9557 145.224 68.5129C144.401 68.0701 143.745 67.3957 143.262 66.4896C142.779 65.5904 142.541 64.48 142.541 63.1788V53.0488H144.836H144.83Z" fill="white"/>
<path d="M172.532 69.017L169.319 62.6338H167.572V69.017H165.277V53.0488H170.1C171.173 53.0488 172.079 53.26 172.824 53.6892C173.57 54.1184 174.124 54.6906 174.494 55.4127C174.863 56.1348 175.048 56.9387 175.048 57.8243C175.048 58.8666 174.786 59.8135 174.255 60.6582C173.725 61.503 172.914 62.0888 171.811 62.3954L175.269 69.0102H172.532V69.017ZM167.567 60.5424H170.1C170.959 60.5424 171.602 60.2972 172.038 59.8067C172.473 59.3162 172.693 58.6622 172.693 57.8311C172.693 57 172.479 56.3596 172.049 55.8896C171.62 55.4263 170.97 55.1879 170.1 55.1879H167.567V60.5424Z" fill="white"/>
<path d="M197.178 53.0488L192.558 63.2265V69.017H190.263V63.2265L185.619 53.0488H188.171L191.408 60.883L194.645 53.0488H197.178Z" fill="white"/>
<path d="M233.946 53.0488L228.7 69.017H226.047L220.777 53.0488H223.227L227.371 66.3261L231.532 53.0488H233.946Z" fill="white"/>
<path d="M246.996 53.0488V69.017H244.701V53.0488H246.996Z" fill="white"/>
<path d="M261.149 66.9052H265.876V69.017H258.859V53.0488H261.154V66.8984L261.149 66.9052Z" fill="white"/>
<path d="M278.92 66.9052H283.647V69.017H276.631V53.0488H278.926V66.8984L278.92 66.9052Z" fill="white"/>
<path d="M302.818 65.7548H296.97L295.963 69.0179H293.572L298.58 53.0293H301.233L306.234 69.0179H303.826L302.818 65.7548ZM302.175 63.6225L299.903 56.2039L297.614 63.6225H302.175Z" fill="white"/>
<path d="M319.326 68.6153C318.575 68.2406 317.985 67.7093 317.556 67.0144C317.127 66.3264 316.912 65.5225 316.912 64.6028H319.362C319.416 65.2909 319.654 65.8563 320.078 66.3059C320.501 66.7487 321.091 66.9735 321.86 66.9735C322.629 66.9735 323.267 66.7555 323.708 66.3195C324.149 65.8836 324.37 65.3181 324.37 64.6301C324.37 64.0919 324.233 63.6559 323.958 63.3221C323.684 62.9883 323.338 62.7294 322.933 62.5387C322.522 62.3547 321.955 62.1572 321.234 61.9392C320.322 61.6667 319.583 61.3874 319.011 61.1013C318.438 60.8152 317.955 60.3792 317.55 59.7797C317.151 59.187 316.948 58.3831 316.948 57.3885C316.948 56.4689 317.151 55.665 317.55 54.977C317.955 54.2889 318.516 53.7576 319.243 53.3897C319.964 53.0218 320.805 52.8379 321.759 52.8379C323.112 52.8379 324.221 53.2262 325.085 53.996C325.95 54.7726 326.426 55.8285 326.522 57.1774H323.988C323.947 56.5915 323.708 56.101 323.267 55.6855C322.826 55.2699 322.242 55.0655 321.52 55.0655C320.864 55.0655 320.328 55.2563 319.911 55.6378C319.493 56.0193 319.285 56.5711 319.285 57.2932C319.285 57.7837 319.416 58.1856 319.678 58.499C319.94 58.8123 320.274 59.0576 320.674 59.2415C321.073 59.4254 321.628 59.623 322.325 59.841C323.249 60.1339 324 60.42 324.584 60.713C325.169 61.0059 325.663 61.4555 326.075 62.055C326.486 62.6613 326.689 63.4652 326.689 64.4802C326.689 65.2909 326.498 66.0607 326.116 66.776C325.735 67.4913 325.181 68.0771 324.447 68.5131C323.714 68.9491 322.856 69.1671 321.866 69.1671C320.93 69.1671 320.084 68.9764 319.332 68.6017L319.326 68.6153Z" fill="white"/>
</svg>
