<svg width="396" height="59" viewBox="0 0 396 59" fill="none" xmlns="http://www.w3.org/2000/svg">
<path d="M12.8576 27.0265C11.2685 27.4327 9.16327 27.5836 6.57668 27.5836H0V0.0464439H5.79954C13.0026 0.0464439 17.0681 2.11826 17.0681 6.73777C17.0681 8.58906 16.4011 10.1037 15.0382 11.2122C14.2263 11.9144 13.1186 12.4657 11.7847 12.8778C13.5941 13.2492 15.073 13.9108 16.1459 14.8742C17.6944 16.2438 18.4715 17.9442 18.4715 19.9753C18.4715 21.7512 17.9554 23.3007 16.8825 24.5949C15.8501 25.8484 14.4815 26.6667 12.8576 27.0323V27.0265ZM9.86502 2.48387C9.16327 2.11246 7.94537 1.89193 5.98513 1.89193C5.61396 1.89193 5.13839 1.92675 4.73242 1.92675V12.1291C4.91801 12.164 5.13839 12.164 5.24858 12.164C8.05556 12.164 9.78963 11.6823 10.677 10.9452C11.5643 10.1676 12.0456 8.91405 12.0456 6.98732C12.0456 5.65834 11.8253 4.66015 11.4889 4.02758C11.1177 3.36019 10.6016 2.84369 9.86502 2.47807V2.48387ZM5.91553 13.9804H4.73822V25.5118H7.6206C9.69103 25.5118 11.0539 25.2506 11.9413 24.3279C12.8634 23.3645 13.3795 21.9253 13.3795 19.8535C13.3795 17.7817 12.8228 16.3076 11.7557 15.3791C10.7176 14.4911 8.8385 13.9746 5.91553 13.9746V13.9804Z" fill="#B95834"/>
<path d="M42.4874 27.5778C38.277 27.5778 35.6904 26.2837 33.0284 23.736C30.2968 21.1883 28.9629 17.7875 28.9629 13.609C28.9629 9.43055 30.3316 6.2561 33.0632 3.74322C35.7947 1.26517 38.3465 0.0464439 42.4468 0.0464439C46.5471 0.0464439 49.1337 1.26516 51.9059 3.70839C54.6781 6.18645 56.0815 9.54663 56.0815 13.7599C56.0815 17.9732 54.7534 21.1883 52.0915 23.7418C49.4295 26.2895 46.8081 27.5836 42.4874 27.5836V27.5778ZM42.4526 1.89193C39.5355 1.89193 38.1668 2.85529 36.5777 4.85167C35.0292 6.81322 34.2115 9.73234 34.2115 13.7599C34.2115 17.7875 35.0234 20.8169 36.5777 22.7784C38.1668 24.74 39.605 25.6975 42.7484 25.6975C45.48 25.6975 47.2199 24.7342 48.8089 22.7784C50.398 20.8169 50.804 17.8977 50.804 13.7947C50.804 9.69171 50.398 6.88286 48.8437 4.92711C47.2952 2.89592 45.4452 1.89773 42.4526 1.89773V1.89193Z" fill="#B95834"/>
<path d="M78.7985 1.85131H74.8838V27.5778H70.1572V1.85131H59.1497L59.225 0.0406532H85.9667L86.0015 1.85131H78.7985Z" fill="#B95834"/>
<path d="M105.099 27.5778C103.586 23.8056 102.994 22.4012 102.994 22.4012L101.074 17.7817H91.9517L88.1877 27.5778H85.8215L97.2002 0.0406532H98.5689L110.243 27.5778H105.111H105.099ZM96.4231 6.47664L92.578 16.0116H100.373L96.4231 6.47664Z" fill="#B95834"/>
<path d="M140.418 27.5778L122.469 3.95795V26.9104H120.659V0.0406532H125.386L139.792 19.2964V0.0406532H141.828V27.5778H140.424H140.418Z" fill="#B95834"/>
<path d="M153.352 27.5778V0.0406532H158.078V27.5778H153.352Z" fill="#B95834"/>
<path d="M195.311 27.5778H188.735L184.484 22.9931L185.261 22.6971C184.043 22.6217 183.596 22.14 183.08 21.6235L175.802 14.3402L174.474 15.5938V27.572H169.706V0.0348237H174.474V13.0461L181.526 6.57526C181.526 6.49981 181.601 6.38956 181.677 6.31412L188.659 0.0290146H191.281L185.516 5.42618C185.034 5.86724 184.559 6.38955 183.927 6.94088L183.335 7.60826L179.31 11.2644L188.88 21.0257C189.1 21.2463 189.436 21.4668 189.657 21.6931L188.845 22.0239C189.622 22.2096 189.692 22.2793 189.692 22.2793L189.616 21.7628C189.692 21.8382 189.726 21.9079 189.767 21.9833L195.305 27.5662L195.311 27.5778Z" fill="#B95834"/>
<path d="M239.939 24.4382C239.051 25.181 237.984 26.0283 237.166 26.3243C234.986 27.1368 232.956 27.5836 231.036 27.5836C227.272 27.5836 224.094 26.3243 221.577 23.8114C219.031 21.2985 217.773 18.1183 217.773 14.2764C217.773 10.4345 218.991 7.17883 221.357 4.33516C223.793 1.45087 227.046 0.0464439 231.146 0.0464439C234.655 0.0464439 237.648 1.30579 240.014 4.00437V4.48606L238.645 5.9253C237.978 4.92711 237.613 4.48605 237.166 4.07981C235.618 2.59994 233.768 1.89773 231.552 1.89773C229.337 1.89773 227.267 2.71021 225.567 4.44543C223.903 6.07038 223.021 9.09976 223.021 13.6496C223.021 18.1995 223.868 21.2637 225.498 22.9989C227.122 24.8096 229.151 25.6975 231.593 25.6975C232.811 25.6975 233.959 25.477 234.957 24.9605C235.954 24.444 236.546 23.852 236.876 23.1846C237.248 22.5172 237.358 21.6351 237.358 20.486V15.3094H241.974V19.9637C241.707 22.3489 239.944 24.4382 239.944 24.4382H239.939Z" fill="#B95834"/>
<path d="M268.165 27.5778C266.651 23.8056 266.06 22.4012 266.06 22.4012L264.14 17.7817H255.018L251.254 27.5778H248.887L260.266 0.0406532H261.635L273.309 27.5778H268.177H268.165ZM259.483 6.47664L255.638 16.0116H263.433L259.483 6.47664Z" fill="#B95834"/>
<path d="M295.835 14.8277C296.757 15.4951 297.83 16.5281 299.088 18.1937C299.088 18.1937 301.083 20.8923 303.78 27.5836H299.715C299.343 26.0283 295.614 14.9438 288.666 14.9438L287.999 14.909V27.5894H283.308V0.0522346H289.554C292.065 0.0522346 294.135 0.203115 295.759 0.678995C297.383 1.16068 298.752 1.82227 299.79 2.97135C300.822 4.12042 301.338 5.48423 301.338 7.07436C301.338 8.91985 300.671 10.51 299.303 11.8041C298.236 12.8371 296.757 13.7251 294.872 14.1719C295.168 14.3576 295.498 14.5433 295.829 14.8393L295.835 14.8277ZM289.188 2.07762L288.005 2.0428V13.1331H290.627C291.067 13.1331 291.514 13.0229 291.955 12.9126C292.395 12.8023 292.801 12.6514 293.173 12.5412C293.799 12.3555 294.356 11.9144 294.837 11.4675C295.243 11.0613 295.574 10.5796 295.835 9.91803C296.055 9.25064 296.206 8.43815 296.206 7.43996C296.206 5.66412 295.765 4.36997 294.913 3.37179C294.176 2.44904 292.291 2.07762 289.188 2.07762Z" fill="#B95834"/>
<path d="M334.773 23.7708C333.7 24.8792 332.482 25.7323 331.078 26.2836C329.71 26.8408 328.422 27.2064 327.164 27.3573C325.946 27.5024 324.212 27.5778 322.031 27.5778H314.347V0C320.848 0.0348205 322.101 0.0348279 322.101 0.0348279C326.015 0.0348279 329.159 0.626768 331.444 1.88611C333.7 3.10482 335.399 4.77041 336.507 6.91187C337.614 9.01851 338.171 11.4559 338.171 14.1951C338.171 16.1567 337.875 17.9673 337.284 19.6271C336.658 21.2927 335.846 22.6565 334.773 23.765V23.7708ZM329.82 4.5905C328.822 3.51687 327.68 2.81465 326.456 2.44904C325.203 2.07762 323.574 1.89192 321.579 1.89192C320.726 1.89192 319.845 1.92673 319.033 1.96736V25.7323H322.652C324.908 25.7323 326.752 25.4363 328.121 24.8444C329.489 24.2525 330.667 23.1092 331.595 21.3333C332.551 19.5575 333.033 17.3058 333.033 14.4969C333.033 12.28 332.737 10.3591 332.18 8.65868C331.624 6.95829 330.852 5.62931 329.814 4.5905H329.82Z" fill="#B95834"/>
<path d="M356.643 1.85129H353.575V12.1988H361.219V14.0094H353.575V25.7265H365.174V27.5372H348.808V0H365.243V1.85129H356.637H356.643Z" fill="#B95834"/>
<path d="M394.543 27.5778L376.593 3.95795V26.9104H374.784V0.0406532H379.51L393.916 19.2964V0.0406532H395.952V27.5778H394.549H394.543Z" fill="#B95834"/>
<path d="M80.0163 56.2988H84.6154V58.0979H77.7893V44.4947H80.0221V56.293L80.0163 56.2988Z" fill="#B95834"/>
<path d="M97.2873 44.4947V53.165C97.2873 54.1922 97.5541 54.9698 98.0993 55.4921C98.6386 56.0144 99.3926 56.2756 100.361 56.2756C101.33 56.2756 102.095 56.0144 102.64 55.4921C103.18 54.9698 103.452 54.1922 103.452 53.165V44.4947H105.679V53.1243C105.679 54.2328 105.441 55.173 104.954 55.9448C104.473 56.7167 103.829 57.2912 103.017 57.6684C102.211 58.0456 101.318 58.2371 100.338 58.2371C99.3578 58.2371 98.4704 58.0456 97.6701 57.6684C96.8698 57.2912 96.2318 56.7167 95.762 55.9448C95.2923 55.1788 95.0603 54.2328 95.0603 53.1243V44.4947H97.2931H97.2873Z" fill="#B95834"/>
<path d="M123.414 51.3079L127.642 58.0979H125.137L122.069 53.165L119.192 58.0979H116.71L120.938 51.3079L116.693 44.5005H119.192L122.283 49.4741L125.177 44.5005H127.66L123.414 51.3079Z" fill="#B95834"/>
<path d="M140.9 44.4947V53.165C140.9 54.1922 141.167 54.9698 141.712 55.4921C142.251 56.0144 143.005 56.2756 143.974 56.2756C144.942 56.2756 145.708 56.0144 146.253 55.4921C146.792 54.9698 147.065 54.1922 147.065 53.165V44.4947H149.292V53.1243C149.292 54.2328 149.054 55.173 148.567 55.9448C148.086 56.7167 147.442 57.2912 146.63 57.6684C145.824 58.0456 144.931 58.2371 143.95 58.2371C142.97 58.2371 142.083 58.0456 141.283 57.6684C140.482 57.2912 139.844 56.7167 139.375 55.9448C138.905 55.1788 138.673 54.2328 138.673 53.1243V44.4947H140.906H140.9Z" fill="#B95834"/>
<path d="M167.85 58.0979L164.724 52.6601H163.025V58.0979H160.792V44.4947H165.484C166.528 44.4947 167.41 44.6746 168.134 45.0402C168.859 45.4058 169.399 45.8933 169.758 46.5085C170.118 47.1236 170.298 47.8084 170.298 48.5629C170.298 49.4508 170.043 50.2575 169.526 50.9771C169.01 51.6967 168.221 52.1958 167.149 52.457L170.512 58.0921H167.85V58.0979ZM163.019 50.8784H165.484C166.319 50.8784 166.946 50.6695 167.369 50.2517C167.792 49.8338 168.007 49.2767 168.007 48.5687C168.007 47.8607 167.798 47.3151 167.381 46.9147C166.963 46.5201 166.331 46.317 165.484 46.317H163.019V50.8784Z" fill="#B95834"/>
<path d="M191.826 44.4947L187.331 53.165V58.0979H185.098V53.165L180.58 44.4947H183.063L186.212 51.1686L189.361 44.4947H191.826Z" fill="#B95834"/>
<path d="M227.597 44.4947L222.494 58.0979H219.913L214.786 44.4947H217.17L221.2 55.8055L225.249 44.4947H227.597Z" fill="#B95834"/>
<path d="M240.292 44.4947V58.0979H238.06V44.4947H240.292Z" fill="#B95834"/>
<path d="M254.061 56.2988H258.66V58.0979H251.833V44.4947H254.066V56.293L254.061 56.2988Z" fill="#B95834"/>
<path d="M271.349 56.2988H275.948V58.0979H269.122V44.4947H271.355V56.293L271.349 56.2988Z" fill="#B95834"/>
<path d="M294.599 55.3181H288.91L287.93 58.0979H285.604L290.476 44.4773H293.057L297.923 58.0979H295.579L294.599 55.3181ZM293.973 53.5016L291.763 47.1817L289.536 53.5016H293.973Z" fill="#B95834"/>
<path d="M310.658 57.7555C309.928 57.4363 309.353 56.9836 308.936 56.3917C308.518 55.8056 308.31 55.1208 308.31 54.3373H310.693C310.745 54.9234 310.977 55.4051 311.389 55.7882C311.801 56.1654 312.375 56.3569 313.123 56.3569C313.871 56.3569 314.492 56.1712 314.921 55.7998C315.35 55.4283 315.565 54.9466 315.565 54.3605C315.565 53.902 315.431 53.5306 315.165 53.2463C314.898 52.9619 314.561 52.7413 314.167 52.5789C313.767 52.4222 313.216 52.2539 312.514 52.0682C311.627 51.836 310.908 51.5981 310.351 51.3543C309.794 51.1106 309.324 50.7392 308.93 50.2285C308.542 49.7236 308.344 49.0388 308.344 48.1915C308.344 47.408 308.542 46.7232 308.93 46.1371C309.324 45.5509 309.87 45.0983 310.577 44.7849C311.279 44.4715 312.097 44.3148 313.025 44.3148C314.341 44.3148 315.42 44.6456 316.261 45.3014C317.102 45.963 317.566 46.8625 317.658 48.0116H315.194C315.153 47.5125 314.921 47.0946 314.492 46.7406C314.063 46.3866 313.494 46.2125 312.793 46.2125C312.155 46.2125 311.633 46.375 311.227 46.7C310.821 47.025 310.618 47.4951 310.618 48.1102C310.618 48.5281 310.745 48.8705 311.001 49.1374C311.256 49.4044 311.581 49.6133 311.969 49.77C312.358 49.9267 312.897 50.095 313.576 50.2807C314.474 50.5303 315.205 50.774 315.774 51.0235C316.342 51.2731 316.823 51.6561 317.223 52.1668C317.624 52.6833 317.821 53.3681 317.821 54.2328C317.821 54.9234 317.635 55.5792 317.264 56.1886C316.893 56.7979 316.354 57.297 315.64 57.6685C314.927 58.0399 314.092 58.2256 313.129 58.2256C312.218 58.2256 311.395 58.0631 310.664 57.7439L310.658 57.7555Z" fill="#B95834"/>
</svg>
