<?xml version="1.0" encoding="UTF-8"?>
<svg id="Calque_2" data-name="Calque 2" xmlns="http://www.w3.org/2000/svg" viewBox="0 0 842.01 323.58">
  <defs>
    <style>
      .cls-1 {
        fill: #b68150;
      }

      .cls-2 {
        fill: #3b444d;
      }
    </style>
  </defs>
  <g id="Layer_1" data-name="Layer 1">
    <g>
      <g>
        <path class="cls-2" d="m262.82,230.18V.05l56.85.47c101.13,0,128.95,60.7,128.95,114.83s-27.82,114.83-128.95,114.83h-56.85Zm152.74-114.83c0-47.57-10.8-113.19-95.89-113.19h-25.75v226.38h25.75c85.09,0,95.89-65.94,95.89-113.19Z"/>
        <path class="cls-2" d="m106.3,0h138.27v57.41h-1.63c-2.93-33.27-19.85-55.78-57.59-55.78h-46.21v83.03L106.3,0Z"/>
        <polygon class="cls-2" points="144.83 107.45 144.83 108.8 144.83 110.15 144.83 111.5 206.04 111.5 206.04 110.15 206.04 108.8 206.04 107.45 144.83 107.45"/>
        <path class="cls-2" d="m840.37,159.38c-1.97,37.47-19.67,69.01-57.7,69.01h-59.34v-116.88h61.53v-4.08h-61.53V1.64h46.56c38.02,0,55.07,22.67,58.02,56.2h1.64V0h-137.69l.02,230.04h150.12v-70.66h-1.63Z"/>
        <path class="cls-2" d="m146.38,230.04h98.19v-70.24h-1.63c-1.96,37.24-19.55,68.6-57.36,68.6l-39.21,1.63Z"/>
        <path class="cls-2" d="m594.94,134.13v2.71h.06v1.26h37.08v12.71c0,53.99-18.8,77.64-58.96,77.64-62.47,0-74.05-67.41-74.05-113.42S510.64,1.6,573.11,1.6c45.57,0,66.61,35.46,75.21,71.57h1.6V4.47h-1.6c-2.55,5.43-6.05,8.63-14.34,8.63-14.66,0-34.42-13.1-60.87-13.1-66.3,0-106.25,53.99-106.25,115.02s39.94,115.02,106.25,115.02c38.56,0,52.59-24.28,69.16-24.28,10.52,0,13.07,10.86,14.02,22.36h1.6v-90.03h15.72v-3.97h-78.67Z"/>
        <path class="cls-2" d="m4.17,230.04l27.66-74.85h82.3l27.71,74.85h31.3L88.53,0h-2.28s-1.78,0-1.78,0L0,230.04h4.17ZM72.11,43l-.11-.04.05-.12.06.16Zm-38.79,108.15l39.38-106.57,39.88,106.57H33.32Z"/>
      </g>
      <g>
        <path class="cls-1" d="m319.8,318.28l2.61-5.03h18.34l2.51,5.31,2.11,4.93h9.64l-16.69-35.1c-.31-.68-.61-1.29-.88-1.82l-1.19-2.38v-1.68h-10.88v1.68l-1.06,2.56c-.22.53-.51,1.23-.88,2.1l-15.79,34.63h9.64s2.51-5.2,2.51-5.2Zm3.82-11.92l7.05-15.64,7.11,15.64h-14.15Z"/>
        <path class="cls-1" d="m262.71,323.34v-37.88l.02-2.78h24.34c4.95,0,8.84.91,11.67,2.75,2.84,1.83,4.25,4.94,4.25,9.31s-1.42,7.49-4.25,9.32c-2.83,1.83-6.72,2.74-11.67,2.74h-15.54v16.54h-8.81Zm25.28-23.65c1.7,0,3.16-.33,4.37-1,1.21-.67,1.82-1.99,1.82-3.94s-.61-3.27-1.82-3.94c-1.21-.67-2.67-1-4.37-1h-16.47v9.89h16.47Z"/>
        <path class="cls-1" d="m406.91,323.34l-1.64-2.48-10.28-14.69c3.4-.62,6.1-1.83,8.12-3.63,2.01-1.8,3.01-4.41,3.01-7.81,0-2.22-.38-4.08-1.16-5.61-.77-1.52-1.88-2.75-3.33-3.71-1.44-.95-3.17-1.65-5.18-2.09-2.01-.44-4.25-.66-6.72-.66h-24.03v40.67h8.81l-.17-16.54h11.06l8.51,12.06,3.05,4.48m-4.59-23c-1.24.28-2.79.42-4.64.42h-13.37v-11.44h13.37c1.86,0,3.4.14,4.64.42,1.24.28,2.21.68,2.93,1.2.72.52,1.24,1.12,1.55,1.82.31.69.46,1.46.46,2.28s-.16,1.59-.46,2.28c-.31.69-.83,1.3-1.55,1.82-.72.52-1.7.92-2.93,1.2Z"/>
        <path class="cls-1" d="m621.71,323.34l-1.64-2.48-10.28-14.69c3.4-.62,6.1-1.83,8.12-3.63,2.01-1.8,3.01-4.41,3.01-7.81,0-2.22-.38-4.08-1.16-5.61-.77-1.52-1.88-2.75-3.33-3.71-1.44-.95-3.17-1.65-5.18-2.09-2.01-.44-4.25-.66-6.72-.66h-24.03v40.67h8.81l-.17-16.54h11.06l8.51,12.06,3.05,4.48m-4.59-23c-1.24.28-2.79.42-4.64.42h-13.37v-11.44h13.37c1.86,0,3.4.14,4.64.42,1.24.28,2.21.68,2.93,1.2.72.52,1.24,1.12,1.55,1.82.31.69.46,1.46.46,2.28s-.16,1.59-.46,2.28c-.31.69-.83,1.3-1.55,1.82-.72.52-1.7.92-2.93,1.2Z"/>
        <polygon class="cls-1" points="440.58 323.3 431.58 323.3 431.63 289.74 418.87 289.74 415.47 289.73 415.47 282.59 418.87 282.63 453.2 282.63 456.6 282.62 456.6 289.71 453.2 289.74 440.44 289.74 440.58 323.3"/>
        <path class="cls-1" d="m500.43,319.48l-23.58-24.59.09,28.45h-8.29v-40.67h10.63c.62,3.14,2.05,4.33,2.05,4.33l22.19,23.04.06-27.37h8.11l.42,40.67h-10.29s.2-2.21-1.39-3.86Z"/>
        <polygon class="cls-1" points="528.5 323.34 528.31 282.68 566.54 282.68 566.54 289.06 537.16 289.33 537.16 298.91 556.95 298.91 556.95 305.56 537.16 305.56 537.16 316.23 567 316.23 567 323.34 528.5 323.34"/>
        <path class="cls-1" d="m672.71,287.44l-3.6,6.59-4.35-2.27c-.95-.59-2.24-.89-3.52-1.35-1.29-.47-2.68-.84-4.17-1.12-1.49-.28-2.99-.43-4.48-.43-1.13,0-2.31.09-3.52.27-1.21.18-2.31.46-3.29.81-.98.36-1.79.84-2.44,1.43s-.97,1.33-.97,2.2c0,1.24.45,2.17,1.35,2.79.9.62,2.09,1.08,3.55,1.39,1.47.31,3.14.51,5.03.62,1.88.11,3.8.23,5.76.39,1.96.15,3.88.42,5.76.81,1.88.38,3.56,1,5.03,1.86,1.47.85,2.66,2,3.56,3.44.9,1.44,1.35,3.33,1.35,5.65,0,2.68-.71,4.87-2.13,6.57-1.42,1.7-3.18,3.04-5.29,4.02-2.11.98-4.39,1.64-6.84,1.97-2.45.33-4.73.5-6.84.5-2.94,0-5.4-.17-7.38-.5-1.99-.33-3.63-.75-4.95-1.24-1.31-.49-2.36-.93-3.13-1.31l-3.51-1.82,3.09-6.84c3.35,2.21,7.42,3.75,7.42,3.75,1.37.47,2.8.84,4.29,1.12,1.49.29,2.83.43,4.02.43.88,0,2.01-.07,3.4-.2,1.39-.13,2.76-.4,4.1-.81,1.34-.41,2.5-.98,3.48-1.7.98-.72,1.47-1.68,1.47-2.86s-.45-2.06-1.35-2.63-2.09-.98-3.55-1.24c-1.47-.26-3.15-.43-5.03-.51-1.88-.07-3.8-.19-5.76-.35-1.96-.16-3.88-.41-5.76-.77-1.88-.36-3.56-.97-5.03-1.82-1.47-.85-2.66-2.01-3.56-3.48-.9-1.47-1.35-3.39-1.35-5.76,0-1.6.37-3.17,1.12-4.72.75-1.55,1.89-2.91,3.44-4.1,1.55-1.18,3.5-2.15,5.88-2.9,2.37-.75,5.15-1.12,8.35-1.12,2.73,0,5.1.2,7.11.62,2.01.42,3.75.85,5.22,1.31,1.47.47,2.71.9,3.71,1.31l4.32,1.98Z"/>
      </g>
    </g>
  </g>
</svg>