<svg width="396" height="54" viewBox="0 0 396 54" fill="none" xmlns="http://www.w3.org/2000/svg">
<path d="M12.8576 24.901C11.2685 25.2752 9.16327 25.4143 6.57668 25.4143H0V0.0429688H5.79954C13.0026 0.0429688 17.0681 1.95183 17.0681 6.20801C17.0681 7.91369 16.4011 9.30924 15.0382 10.3305C14.2263 10.9775 13.1186 11.4855 11.7847 11.8651C13.5941 12.2073 15.073 12.8169 16.1459 13.7044C17.6944 14.9663 18.4715 16.533 18.4715 18.4044C18.4715 20.0406 17.9554 21.4682 16.8825 22.6606C15.8501 23.8155 14.4815 24.5694 12.8576 24.9063V24.901ZM9.86502 2.28869C9.16327 1.94648 7.94537 1.7433 5.98513 1.7433C5.61396 1.7433 5.13839 1.77538 4.73242 1.77538V11.1753C4.91801 11.2074 5.13839 11.2074 5.24858 11.2074C8.05556 11.2074 9.78962 10.7636 10.677 10.0845C11.5643 9.36806 12.0456 8.21311 12.0456 6.43792C12.0456 5.21347 11.8253 4.2938 11.4889 3.71098C11.1177 3.09608 10.6016 2.6202 9.86502 2.28334V2.28869ZM5.91553 12.881H4.73822V23.5054H7.6206C9.69103 23.5054 11.0539 23.2648 11.9413 22.4146C12.8634 21.527 13.3795 20.201 13.3795 18.2921C13.3795 16.3833 12.8228 15.0251 11.7557 14.1696C10.7176 13.3515 8.8385 12.8757 5.91553 12.8757V12.881Z" fill="#3F3F3F"/>
<path d="M42.4874 25.4089C38.277 25.4089 35.6904 24.2166 33.0284 21.8692C30.2968 19.5219 28.9629 16.3886 28.9629 12.5388C28.9629 8.68899 30.3316 5.76422 33.0632 3.44898C35.7947 1.16583 38.3465 0.0429688 42.4468 0.0429688C46.5471 0.0429688 49.1337 1.16583 51.9059 3.4169C54.6781 5.70005 56.0815 8.79594 56.0815 12.6778C56.0815 16.5597 54.7534 19.5219 52.0915 21.8746C49.4295 24.2219 46.8081 25.4143 42.4874 25.4143V25.4089ZM42.4526 1.7433C39.5355 1.7433 38.1668 2.63089 36.5777 4.47025C35.0292 6.27752 34.2115 8.96704 34.2115 12.6778C34.2115 16.3886 35.0234 19.1797 36.5777 20.987C38.1668 22.7943 39.605 23.6765 42.7484 23.6765C45.48 23.6765 47.2198 22.7889 48.8089 20.987C50.398 19.1797 50.804 16.4902 50.804 12.7099C50.804 8.92961 50.398 6.34168 48.8437 4.53976C47.2952 2.66833 45.4452 1.74865 42.4526 1.74865V1.7433Z" fill="#3F3F3F"/>
<path d="M78.7983 1.70633H74.8836V25.4094H70.1569V1.70633H59.1494L59.2248 0.0380859H85.9665L86.0013 1.70633H78.7983Z" fill="#3F3F3F"/>
<path d="M105.099 25.4094C103.585 21.9339 102.994 20.6399 102.994 20.6399L101.074 16.3837H91.9514L88.1875 25.4094H85.8213L97.2 0.0380859H98.5687L110.243 25.4094H105.111H105.099ZM96.4229 5.96786L92.5778 14.7529H100.372L96.4229 5.96786Z" fill="#3F3F3F"/>
<path d="M140.418 25.4094L122.469 3.64728V24.7945H120.659V0.0380859H125.386L139.792 17.7793V0.0380859H141.828V25.4094H140.424H140.418Z" fill="#3F3F3F"/>
<path d="M153.352 25.4094V0.0380859H158.078V25.4094H153.352Z" fill="#3F3F3F"/>
<path d="M195.311 25.4084H188.734L184.483 21.1843L185.26 20.9116C184.043 20.8421 183.596 20.3983 183.08 19.9224L175.801 13.212L174.473 14.3669V25.403H169.706V0.0317194H174.473V12.0196L181.526 6.05773C181.526 5.98822 181.601 5.88664 181.676 5.81713L188.659 0.0263672H191.28L185.516 4.99903C185.034 5.4054 184.559 5.88663 183.927 6.39459L183.335 7.00949L179.31 10.3781L188.879 19.3716C189.1 19.5748 189.436 19.778 189.656 19.9866L188.845 20.2913C189.622 20.4624 189.691 20.5266 189.691 20.5266L189.616 20.0507C189.691 20.1202 189.726 20.1844 189.767 20.2539L195.305 25.3977L195.311 25.4084Z" fill="#3F3F3F"/>
<path d="M239.938 22.5162C239.051 23.2006 237.984 23.9813 237.166 24.254C234.986 25.0026 232.956 25.4143 231.036 25.4143C227.272 25.4143 224.094 24.254 221.577 21.9388C219.031 19.6235 217.772 16.6934 217.772 13.1537C217.772 9.61401 218.99 6.61438 221.357 3.99437C223.792 1.33693 227.046 0.0429688 231.146 0.0429688C234.655 0.0429688 237.647 1.20326 240.014 3.6896V4.13339L238.645 5.45944C237.978 4.53976 237.613 4.13339 237.166 3.7591C235.618 2.39563 233.768 1.74865 231.552 1.74865C229.337 1.74865 227.266 2.49722 225.567 4.09596C223.903 5.59311 223.021 8.38422 223.021 12.5762C223.021 16.7682 223.868 19.5914 225.497 21.1902C227.121 22.8584 229.151 23.6765 231.593 23.6765C232.811 23.6765 233.959 23.4733 234.957 22.9974C235.954 22.5216 236.546 21.9762 236.876 21.3613C237.247 20.7464 237.358 19.9336 237.358 18.8749V14.1055H241.974V18.3937C241.707 20.5913 239.944 22.5162 239.944 22.5162H239.938Z" fill="#3F3F3F"/>
<path d="M268.165 25.4094C266.652 21.9339 266.06 20.6399 266.06 20.6399L264.141 16.3837H255.018L251.254 25.4094H248.888L260.266 0.0380859H261.635L273.31 25.4094H268.177H268.165ZM259.483 5.96786L255.638 14.7529H263.433L259.483 5.96786Z" fill="#3F3F3F"/>
<path d="M295.835 13.6612C296.757 14.2761 297.83 15.2278 299.088 16.7624C299.088 16.7624 301.083 19.2488 303.78 25.4138H299.715C299.343 23.9808 295.614 13.7681 288.666 13.7681L287.999 13.7361V25.4191H283.308V0.0478516H289.554C292.065 0.0478516 294.135 0.186865 295.759 0.625315C297.383 1.06911 298.752 1.67867 299.79 2.73737C300.822 3.79607 301.338 5.0526 301.338 6.51767C301.338 8.218 300.671 9.68306 299.303 10.8754C298.236 11.8272 296.757 12.6453 294.872 13.057C295.168 13.2281 295.498 13.3992 295.829 13.6719L295.835 13.6612ZM289.188 1.91393L288.005 1.88185V12.0999H290.627C291.067 12.0999 291.514 11.9983 291.955 11.8967C292.395 11.7951 292.801 11.6561 293.173 11.5545C293.799 11.3834 294.356 10.977 294.837 10.5653C295.243 10.191 295.574 9.74723 295.835 9.13767C296.055 8.52277 296.206 7.77419 296.206 6.85451C296.206 5.21835 295.765 4.02599 294.913 3.10631C294.176 2.25614 292.291 1.91393 289.188 1.91393Z" fill="#3F3F3F"/>
<path d="M334.773 21.9011C333.7 22.9224 332.482 23.7084 331.078 24.2164C329.71 24.7297 328.422 25.0665 327.164 25.2055C325.946 25.3392 324.212 25.4087 322.031 25.4087H314.347V0C320.848 0.0320817 322.101 0.0320886 322.101 0.0320886C326.015 0.0320886 329.159 0.577471 331.444 1.73776C333.7 2.86062 335.399 4.39521 336.507 6.36823C337.614 8.30918 338.171 10.5549 338.171 13.0787C338.171 14.8859 337.875 16.5542 337.284 18.0834C336.658 19.618 335.846 20.8745 334.773 21.8958V21.9011ZM329.82 4.22944C328.822 3.24026 327.68 2.59327 326.456 2.25642C325.203 1.91421 323.574 1.74311 321.579 1.74311C320.726 1.74311 319.845 1.77519 319.033 1.81262V23.7084H322.652C324.908 23.7084 326.752 23.4357 328.121 22.8903C329.489 22.3449 330.667 21.2916 331.595 19.6554C332.551 18.0192 333.033 15.9446 333.033 13.3567C333.033 11.3142 332.737 9.54431 332.18 7.97766C331.624 6.411 330.852 5.18655 329.814 4.22944H329.82Z" fill="#3F3F3F"/>
<path d="M356.643 1.70568H353.575V11.2393H361.219V12.9075H353.575V23.7031H365.174V25.3713H348.808V0H365.243V1.70568H356.637H356.643Z" fill="#3F3F3F"/>
<path d="M394.543 25.4094L376.594 3.64728V24.7945H374.784V0.0380859H379.511L393.917 17.7793V0.0380859H395.953V25.4094H394.549H394.543Z" fill="#3F3F3F"/>
<path d="M80.0161 51.8708H84.6151V53.5284H77.7891V40.9951H80.0219V51.8655L80.0161 51.8708Z" fill="#3F3F3F"/>
<path d="M97.2876 40.9951V48.9835C97.2876 49.9299 97.5543 50.6464 98.0995 51.1276C98.6389 51.6088 99.3928 51.8494 100.361 51.8494C101.33 51.8494 102.095 51.6088 102.641 51.1276C103.18 50.6464 103.452 49.9299 103.452 48.9835V40.9951H105.679V48.946C105.679 49.9673 105.442 50.8335 104.955 51.5447C104.473 52.2558 103.829 52.7852 103.018 53.1327C102.211 53.4803 101.318 53.6567 100.338 53.6567C99.358 53.6567 98.4707 53.4803 97.6703 53.1327C96.87 52.7852 96.232 52.2558 95.7623 51.5447C95.2925 50.8389 95.0605 49.9673 95.0605 48.946V40.9951H97.2934H97.2876Z" fill="#3F3F3F"/>
<path d="M123.414 47.272L127.642 53.5279H125.137L122.069 48.983L119.192 53.5279H116.71L120.938 47.272L116.692 41H119.192L122.283 45.5823L125.177 41H127.659L123.414 47.272Z" fill="#3F3F3F"/>
<path d="M140.9 40.9951V48.9835C140.9 49.9299 141.167 50.6464 141.712 51.1276C142.251 51.6088 143.005 51.8494 143.974 51.8494C144.942 51.8494 145.708 51.6088 146.253 51.1276C146.792 50.6464 147.065 49.9299 147.065 48.9835V40.9951H149.292V48.946C149.292 49.9673 149.054 50.8335 148.567 51.5447C148.086 52.2558 147.442 52.7852 146.63 53.1327C145.824 53.4803 144.931 53.6567 143.95 53.6567C142.97 53.6567 142.083 53.4803 141.283 53.1327C140.482 52.7852 139.844 52.2558 139.375 51.5447C138.905 50.8389 138.673 49.9673 138.673 48.946V40.9951H140.906H140.9Z" fill="#3F3F3F"/>
<path d="M167.85 53.5284L164.724 48.5183H163.025V53.5284H160.792V40.9951H165.484C166.528 40.9951 167.409 41.1609 168.134 41.4977C168.859 41.8346 169.399 42.2837 169.758 42.8505C170.118 43.4173 170.297 44.0482 170.297 44.7433C170.297 45.5614 170.042 46.3047 169.526 46.9677C169.01 47.6307 168.221 48.0905 167.148 48.3311L170.512 53.523H167.85V53.5284ZM163.019 46.8768H165.484C166.319 46.8768 166.945 46.6843 167.369 46.2993C167.792 45.9143 168.007 45.401 168.007 44.7487C168.007 44.0964 167.798 43.5937 167.38 43.2248C166.963 42.8612 166.331 42.6741 165.484 42.6741H163.019V46.8768Z" fill="#3F3F3F"/>
<path d="M191.825 40.9951L187.331 48.9835V53.5284H185.098V48.9835L180.58 40.9951H183.062L186.211 47.1441L189.361 40.9951H191.825Z" fill="#3F3F3F"/>
<path d="M227.597 40.9951L222.494 53.5284H219.913L214.786 40.9951H217.17L221.2 51.4163L225.249 40.9951H227.597Z" fill="#3F3F3F"/>
<path d="M240.292 40.9951V53.5284H238.06V40.9951H240.292Z" fill="#3F3F3F"/>
<path d="M254.06 51.8708H258.659V53.5284H251.833V40.9951H254.066V51.8655L254.06 51.8708Z" fill="#3F3F3F"/>
<path d="M271.349 51.8708H275.948V53.5284H269.122V40.9951H271.355V51.8655L271.349 51.8708Z" fill="#3F3F3F"/>
<path d="M294.6 50.9666H288.91L287.93 53.5278H285.604L290.476 40.9785H293.057L297.923 53.5278H295.58L294.6 50.9666ZM293.973 49.293L291.764 43.4702L289.537 49.293H293.973Z" fill="#3F3F3F"/>
<path d="M310.658 53.2127C309.928 52.9186 309.353 52.5015 308.936 51.9561C308.518 51.4161 308.31 50.7851 308.31 50.0633H310.693C310.745 50.6033 310.977 51.0471 311.389 51.4C311.801 51.7476 312.375 51.924 313.123 51.924C313.871 51.924 314.492 51.7529 314.921 51.4107C315.35 51.0685 315.565 50.6247 315.565 50.0847C315.565 49.6623 315.431 49.3201 315.165 49.0581C314.898 48.7961 314.561 48.5929 314.167 48.4432C313.767 48.2988 313.216 48.1437 312.514 47.9726C311.627 47.7588 310.908 47.5395 310.351 47.315C309.794 47.0904 309.324 46.7482 308.93 46.2776C308.542 45.8125 308.344 45.1815 308.344 44.4009C308.344 43.679 308.542 43.0481 308.93 42.5081C309.324 41.968 309.87 41.5509 310.577 41.2622C311.279 40.9735 312.097 40.8291 313.025 40.8291C314.341 40.8291 315.42 41.1339 316.261 41.7381C317.102 42.3476 317.566 43.1764 317.658 44.2351H315.194C315.153 43.7753 314.921 43.3903 314.492 43.0641C314.063 42.738 313.494 42.5776 312.793 42.5776C312.155 42.5776 311.633 42.7273 311.227 43.0267C310.821 43.3261 310.618 43.7592 310.618 44.326C310.618 44.711 310.745 45.0265 311.001 45.2724C311.256 45.5184 311.581 45.7109 311.969 45.8552C312.358 45.9996 312.897 46.1547 313.576 46.3258C314.474 46.5557 315.205 46.7803 315.774 47.0102C316.342 47.2401 316.823 47.593 317.223 48.0635C317.624 48.5394 317.821 49.1703 317.821 49.967C317.821 50.6033 317.635 51.2075 317.264 51.769C316.893 52.3304 316.354 52.7902 315.64 53.1324C314.927 53.4747 314.092 53.6458 313.129 53.6458C312.218 53.6458 311.395 53.496 310.664 53.202L310.658 53.2127Z" fill="#3F3F3F"/>
</svg>
